G04*
G04 #@! TF.GenerationSoftware,Altium Limited,Altium Designer,24.1.2 (44)*
G04*
G04 Layer_Color=65535*
%FSLAX44Y44*%
%MOMM*%
G71*
G04*
G04 #@! TF.SameCoordinates,BD0B943F-0E77-4E2A-8F04-F263FF0033BB*
G04*
G04*
G04 #@! TF.FilePolarity,Positive*
G04*
G01*
G75*
%ADD10C,0.2500*%
%ADD11C,0.1524*%
%ADD12C,0.2000*%
%ADD13C,0.1000*%
%ADD14C,0.2540*%
G36*
X579323Y307019D02*
X581590D01*
Y306695D01*
X582562D01*
Y306372D01*
X583533D01*
Y306048D01*
X584181D01*
Y305724D01*
X584505D01*
Y305400D01*
X585153D01*
Y305076D01*
X585476D01*
Y304752D01*
X585800D01*
Y304429D01*
X586124D01*
Y303781D01*
X586448D01*
Y303457D01*
X586124D01*
Y303133D01*
X585800D01*
Y302809D01*
X585476D01*
Y302485D01*
X584829D01*
Y302162D01*
X584505D01*
Y301838D01*
X584181D01*
Y301514D01*
X583857D01*
Y301190D01*
X583533D01*
Y300866D01*
X583209D01*
Y300542D01*
X582886D01*
Y300219D01*
X582562D01*
Y299895D01*
X581914D01*
Y299571D01*
X581590D01*
Y299247D01*
X581266D01*
Y298923D01*
X580942D01*
Y298599D01*
X580619D01*
Y298275D01*
X580295D01*
Y297952D01*
X579971D01*
Y297628D01*
X579647D01*
Y296980D01*
X579323D01*
Y296656D01*
X578999D01*
Y296332D01*
X578675D01*
Y296008D01*
X578352D01*
Y295685D01*
X578028D01*
Y295361D01*
X577704D01*
Y295037D01*
X577380D01*
Y294389D01*
X577056D01*
Y294065D01*
X576732D01*
Y293741D01*
X576409D01*
Y293418D01*
X576085D01*
Y292770D01*
X575761D01*
Y292446D01*
X575437D01*
Y292122D01*
X575113D01*
Y291474D01*
X574789D01*
Y291151D01*
X574465D01*
Y290503D01*
X574142D01*
Y290179D01*
X573818D01*
Y289531D01*
X573494D01*
Y289208D01*
X573170D01*
Y288560D01*
X572846D01*
Y287912D01*
X572522D01*
Y287588D01*
X572198D01*
Y286941D01*
X571875D01*
Y286293D01*
X571551D01*
Y285645D01*
X571227D01*
Y284998D01*
X570579D01*
Y285321D01*
X570255D01*
Y285969D01*
X569931D01*
Y288560D01*
X570255D01*
Y289531D01*
X570579D01*
Y290503D01*
X570903D01*
Y291151D01*
X571227D01*
Y291798D01*
X571551D01*
Y292446D01*
X571875D01*
Y293094D01*
X572198D01*
Y293418D01*
X572522D01*
Y294065D01*
X572846D01*
Y294389D01*
X573170D01*
Y295037D01*
X573494D01*
Y295361D01*
X573818D01*
Y296008D01*
X574142D01*
Y296332D01*
X574465D01*
Y296656D01*
X574789D01*
Y297304D01*
X575113D01*
Y297628D01*
X575437D01*
Y297952D01*
X575761D01*
Y298275D01*
X576085D01*
Y298923D01*
X576409D01*
Y299247D01*
X576732D01*
Y299571D01*
X577056D01*
Y299895D01*
X577380D01*
Y300219D01*
X577704D01*
Y300542D01*
X578028D01*
Y300866D01*
X578352D01*
Y301514D01*
X578675D01*
Y301838D01*
X578999D01*
Y302162D01*
X579323D01*
Y302485D01*
X579647D01*
Y302809D01*
X579971D01*
Y303133D01*
X580295D01*
Y303457D01*
X576732D01*
Y303133D01*
X575437D01*
Y302809D01*
X574142D01*
Y302485D01*
X573494D01*
Y302162D01*
X572522D01*
Y301838D01*
X571875D01*
Y301514D01*
X571227D01*
Y301190D01*
X570903D01*
Y300866D01*
X570255D01*
Y300542D01*
X569608D01*
Y300219D01*
X568960D01*
Y299895D01*
X568636D01*
Y299571D01*
X568312D01*
Y299247D01*
X567665D01*
Y298923D01*
X567341D01*
Y298599D01*
X567017D01*
Y298275D01*
X566369D01*
Y297952D01*
X566045D01*
Y297628D01*
X565722D01*
Y297304D01*
X565398D01*
Y296980D01*
X564750D01*
Y296656D01*
X564426D01*
Y296332D01*
X564102D01*
Y296008D01*
X563778D01*
Y295685D01*
X563455D01*
Y295361D01*
X563131D01*
Y295037D01*
X562807D01*
Y294713D01*
X562483D01*
Y294389D01*
X562159D01*
Y294065D01*
X561835D01*
Y293741D01*
X561511D01*
Y293418D01*
X561188D01*
Y293094D01*
X560864D01*
Y292770D01*
X560540D01*
Y292446D01*
X560216D01*
Y292122D01*
X559892D01*
Y291798D01*
X559568D01*
Y291474D01*
X559244D01*
Y291151D01*
X558921D01*
Y290503D01*
X558597D01*
Y290179D01*
X558273D01*
Y289855D01*
X557949D01*
Y289531D01*
X557625D01*
Y289208D01*
X557301D01*
Y288884D01*
X556978D01*
Y288236D01*
X556654D01*
Y287912D01*
X556330D01*
Y287588D01*
X556006D01*
Y287264D01*
X555682D01*
Y286941D01*
X555358D01*
Y286293D01*
X555034D01*
Y285969D01*
X554711D01*
Y285645D01*
X554387D01*
Y285321D01*
X554063D01*
Y284998D01*
X553739D01*
Y284674D01*
X556006D01*
Y284998D01*
X557301D01*
Y285321D01*
X558273D01*
Y285645D01*
X559244D01*
Y285969D01*
X561188D01*
Y286293D01*
X561835D01*
Y285969D01*
X564102D01*
Y285645D01*
X564750D01*
Y285321D01*
X565398D01*
Y284998D01*
X565722D01*
Y284674D01*
X566369D01*
Y284350D01*
X566693D01*
Y283702D01*
X567017D01*
Y283378D01*
X567341D01*
Y282731D01*
X567665D01*
Y281759D01*
X567988D01*
Y278844D01*
X567665D01*
Y277873D01*
X567341D01*
Y277225D01*
X567017D01*
Y276901D01*
X566693D01*
Y276577D01*
X566369D01*
Y276254D01*
X566045D01*
Y275930D01*
X565722D01*
Y275606D01*
X565398D01*
Y275282D01*
X564750D01*
Y274958D01*
X564102D01*
Y274634D01*
X562807D01*
Y274310D01*
X556330D01*
Y274634D01*
X555034D01*
Y274310D01*
X554387D01*
Y274634D01*
X554063D01*
Y274310D01*
X551472D01*
Y273987D01*
X550177D01*
Y273663D01*
X549205D01*
Y273339D01*
X548234D01*
Y273015D01*
X547262D01*
Y272691D01*
X546614D01*
Y272367D01*
X545967D01*
Y272043D01*
X545319D01*
Y271720D01*
X544671D01*
Y271396D01*
X544347D01*
Y271072D01*
X543700D01*
Y270748D01*
X543376D01*
Y270424D01*
X542728D01*
Y270100D01*
X542404D01*
Y269777D01*
X541757D01*
Y269453D01*
X541433D01*
Y269129D01*
X541109D01*
Y268805D01*
X540461D01*
Y268481D01*
X540137D01*
Y268157D01*
X539813D01*
Y267833D01*
X539490D01*
Y267510D01*
X539166D01*
Y267186D01*
X538842D01*
Y266862D01*
X538518D01*
Y266538D01*
X537870D01*
Y266214D01*
X537547D01*
Y265890D01*
X537223D01*
Y265567D01*
X536899D01*
Y264919D01*
X536575D01*
Y264595D01*
X536251D01*
Y264271D01*
X535927D01*
Y263947D01*
X535603D01*
Y263623D01*
X535280D01*
Y263300D01*
X534956D01*
Y262976D01*
X534632D01*
Y262652D01*
X534308D01*
Y262004D01*
X533984D01*
Y261680D01*
X533660D01*
Y261357D01*
X533336D01*
Y260709D01*
X532689D01*
Y261357D01*
X532365D01*
Y261680D01*
X532689D01*
Y263300D01*
X533013D01*
Y263947D01*
X533336D01*
Y264595D01*
X533660D01*
Y265243D01*
X533984D01*
Y265567D01*
X534308D01*
Y266214D01*
X534632D01*
Y266538D01*
X534956D01*
Y267186D01*
X535280D01*
Y267510D01*
X535603D01*
Y267833D01*
X535927D01*
Y268157D01*
X536251D01*
Y268805D01*
X536575D01*
Y269129D01*
X536899D01*
Y269453D01*
X537223D01*
Y269777D01*
X537547D01*
Y270100D01*
X537870D01*
Y270424D01*
X538194D01*
Y270748D01*
X538842D01*
Y271072D01*
X539166D01*
Y271396D01*
X539490D01*
Y271720D01*
X539813D01*
Y272043D01*
X540137D01*
Y272367D01*
X540785D01*
Y272691D01*
X541109D01*
Y273015D01*
X541433D01*
Y273339D01*
X542080D01*
Y273663D01*
X542404D01*
Y273987D01*
X543052D01*
Y274310D01*
X543376D01*
Y274634D01*
X544024D01*
Y274958D01*
X544671D01*
Y275282D01*
X545319D01*
Y275606D01*
X545967D01*
Y275930D01*
X546614D01*
Y276254D01*
X547586D01*
Y276577D01*
X548557D01*
Y276901D01*
X549529D01*
Y277225D01*
X550824D01*
Y277549D01*
X552767D01*
Y277873D01*
X557949D01*
Y277549D01*
X561835D01*
Y277873D01*
X562807D01*
Y278197D01*
X563131D01*
Y278521D01*
X563455D01*
Y278844D01*
X563778D01*
Y279168D01*
X564102D01*
Y281111D01*
X563778D01*
Y281759D01*
X563455D01*
Y282083D01*
X562807D01*
Y282407D01*
X560540D01*
Y282083D01*
X559244D01*
Y281759D01*
X558597D01*
Y281435D01*
X557301D01*
Y281111D01*
X554387D01*
Y280788D01*
X553415D01*
Y281111D01*
X550824D01*
Y281435D01*
X550177D01*
Y281111D01*
X549853D01*
Y280788D01*
X549529D01*
Y280464D01*
X549205D01*
Y280140D01*
X548881D01*
Y279816D01*
X548234D01*
Y279492D01*
X547910D01*
Y279168D01*
X547586D01*
Y278844D01*
X547262D01*
Y278521D01*
X546938D01*
Y278197D01*
X546291D01*
Y277873D01*
X545967D01*
Y277549D01*
X545319D01*
Y277225D01*
X544995D01*
Y276901D01*
X544347D01*
Y276577D01*
X544024D01*
Y276254D01*
X543376D01*
Y275930D01*
X542728D01*
Y275606D01*
X542080D01*
Y275282D01*
X541433D01*
Y274958D01*
X540461D01*
Y274634D01*
X536899D01*
Y274958D01*
X536251D01*
Y275282D01*
X535603D01*
Y275606D01*
X535280D01*
Y275930D01*
X534956D01*
Y276254D01*
X534632D01*
Y276577D01*
X534308D01*
Y277225D01*
X533984D01*
Y277873D01*
X533660D01*
Y282083D01*
X533984D01*
Y283054D01*
X534308D01*
Y283702D01*
X534632D01*
Y284350D01*
X534956D01*
Y284674D01*
X535280D01*
Y284998D01*
X535603D01*
Y285321D01*
X535927D01*
Y285645D01*
X536251D01*
Y285969D01*
X536575D01*
Y286293D01*
X537223D01*
Y286617D01*
X537870D01*
Y286941D01*
X539490D01*
Y287264D01*
X542404D01*
Y286941D01*
X544024D01*
Y286617D01*
X545319D01*
Y286293D01*
X546614D01*
Y285969D01*
X547586D01*
Y285645D01*
X548881D01*
Y285321D01*
X549205D01*
Y285645D01*
X549529D01*
Y285969D01*
X549853D01*
Y286293D01*
X550177D01*
Y286617D01*
X550500D01*
Y286941D01*
X550824D01*
Y287264D01*
X551148D01*
Y287588D01*
X551472D01*
Y288236D01*
X551796D01*
Y288560D01*
X552120D01*
Y288884D01*
X552444D01*
Y289208D01*
X552767D01*
Y289531D01*
X553091D01*
Y289855D01*
X553415D01*
Y290179D01*
X553739D01*
Y290827D01*
X554063D01*
Y291151D01*
X554387D01*
Y291474D01*
X554711D01*
Y291798D01*
X555034D01*
Y292122D01*
X555358D01*
Y292770D01*
X555682D01*
Y293094D01*
X556006D01*
Y293418D01*
X556330D01*
Y293741D01*
X556654D01*
Y294065D01*
X556978D01*
Y294389D01*
X557301D01*
Y294713D01*
X557625D01*
Y295037D01*
X557949D01*
Y295361D01*
X558273D01*
Y295685D01*
X558597D01*
Y296008D01*
X558921D01*
Y296656D01*
X559244D01*
Y296980D01*
X559568D01*
Y297304D01*
X560216D01*
Y297628D01*
X560540D01*
Y297952D01*
X560864D01*
Y298275D01*
X561188D01*
Y298599D01*
X561511D01*
Y298923D01*
X561835D01*
Y299247D01*
X562159D01*
Y299571D01*
X562483D01*
Y299895D01*
X562807D01*
Y300219D01*
X563131D01*
Y300542D01*
X563778D01*
Y300866D01*
X564102D01*
Y301190D01*
X564426D01*
Y301514D01*
X564750D01*
Y301838D01*
X565398D01*
Y302162D01*
X565722D01*
Y302485D01*
X566369D01*
Y302809D01*
X566693D01*
Y303133D01*
X567341D01*
Y303457D01*
X567665D01*
Y303781D01*
X568312D01*
Y304105D01*
X568636D01*
Y304429D01*
X569284D01*
Y304752D01*
X569931D01*
Y305076D01*
X570579D01*
Y305400D01*
X571227D01*
Y305724D01*
X572198D01*
Y306048D01*
X573170D01*
Y306372D01*
X574142D01*
Y306695D01*
X575437D01*
Y307019D01*
X578675D01*
Y307343D01*
X579323D01*
Y307019D01*
D02*
G37*
G36*
X577380Y289855D02*
X577704D01*
Y289208D01*
X578028D01*
Y288560D01*
X578352D01*
Y288236D01*
X578675D01*
Y287588D01*
X578999D01*
Y287264D01*
X579323D01*
Y286941D01*
X579647D01*
Y286617D01*
X579971D01*
Y286293D01*
X580295D01*
Y285645D01*
X580619D01*
Y285321D01*
X580942D01*
Y284998D01*
X581266D01*
Y284674D01*
X581914D01*
Y284350D01*
X582238D01*
Y284026D01*
X582562D01*
Y283702D01*
X582886D01*
Y283378D01*
X583209D01*
Y283054D01*
X583857D01*
Y282731D01*
X584181D01*
Y282407D01*
X584505D01*
Y282083D01*
X585153D01*
Y281759D01*
X585476D01*
Y281435D01*
X586124D01*
Y281111D01*
X586448D01*
Y280788D01*
X587096D01*
Y280464D01*
X587743D01*
Y280140D01*
X588391D01*
Y279816D01*
X589039D01*
Y279492D01*
X589686D01*
Y279168D01*
X590658D01*
Y278844D01*
X591306D01*
Y278521D01*
X592277D01*
Y278197D01*
X593249D01*
Y277873D01*
X594220D01*
Y277549D01*
X595516D01*
Y277225D01*
X596811D01*
Y276901D01*
X598106D01*
Y276577D01*
X600050D01*
Y276254D01*
X602317D01*
Y275930D01*
X603936D01*
Y273015D01*
X603612D01*
Y270748D01*
X603288D01*
Y268157D01*
X602964D01*
Y265567D01*
X602640D01*
Y263623D01*
X602317D01*
Y263300D01*
X602640D01*
Y262976D01*
X602317D01*
Y262328D01*
X601669D01*
Y262004D01*
X601021D01*
Y261680D01*
X600373D01*
Y261357D01*
X599726D01*
Y261033D01*
X599078D01*
Y260709D01*
X598430D01*
Y260385D01*
X597783D01*
Y260061D01*
X597135D01*
Y259737D01*
X596487D01*
Y259413D01*
X595840D01*
Y259090D01*
X595516D01*
Y258766D01*
X594868D01*
Y258442D01*
X594220D01*
Y258118D01*
X593573D01*
Y257794D01*
X592925D01*
Y257470D01*
X592277D01*
Y257146D01*
X591629D01*
Y256823D01*
X590982D01*
Y256499D01*
X590334D01*
Y256175D01*
X589686D01*
Y255851D01*
X589039D01*
Y255527D01*
X588391D01*
Y255203D01*
X587743D01*
Y254879D01*
X587096D01*
Y254556D01*
X586448D01*
Y254232D01*
X585800D01*
Y253908D01*
X585153D01*
Y253584D01*
X584181D01*
Y253260D01*
X583533D01*
Y252936D01*
X582886D01*
Y252612D01*
X581914D01*
Y252289D01*
X580942D01*
Y251965D01*
X580295D01*
Y251641D01*
X579323D01*
Y251317D01*
X578352D01*
Y250993D01*
X577056D01*
Y250669D01*
X576085D01*
Y250346D01*
X574465D01*
Y250022D01*
X573170D01*
Y249698D01*
X571551D01*
Y249374D01*
X566369D01*
Y249050D01*
X565722D01*
Y249374D01*
X562807D01*
Y249698D01*
X561511D01*
Y250022D01*
X560540D01*
Y250346D01*
X559568D01*
Y250669D01*
X558921D01*
Y250993D01*
X558273D01*
Y251317D01*
X557949D01*
Y251641D01*
X557301D01*
Y251965D01*
X556978D01*
Y252289D01*
X556654D01*
Y252612D01*
X556330D01*
Y252936D01*
X556006D01*
Y253260D01*
X555682D01*
Y253584D01*
X555358D01*
Y253908D01*
X555034D01*
Y254232D01*
X554711D01*
Y254556D01*
X554387D01*
Y255203D01*
X554063D01*
Y255851D01*
X553739D01*
Y256175D01*
X553415D01*
Y257146D01*
X553091D01*
Y258118D01*
X552767D01*
Y262976D01*
X553091D01*
Y264271D01*
X553415D01*
Y265243D01*
X553739D01*
Y265890D01*
X554063D01*
Y266538D01*
X554387D01*
Y266862D01*
X554711D01*
Y267510D01*
X555034D01*
Y267833D01*
X555358D01*
Y268157D01*
X555682D01*
Y268805D01*
X556006D01*
Y269129D01*
X556330D01*
Y269453D01*
X556654D01*
Y269777D01*
X557301D01*
Y270100D01*
X557625D01*
Y270424D01*
X557949D01*
Y270748D01*
X558597D01*
Y271072D01*
X558921D01*
Y271396D01*
X559568D01*
Y271720D01*
X560216D01*
Y272043D01*
X560864D01*
Y272367D01*
X561835D01*
Y272691D01*
X562807D01*
Y273015D01*
X563778D01*
Y273339D01*
X566045D01*
Y273663D01*
X567017D01*
Y273339D01*
X569284D01*
Y273015D01*
X570255D01*
Y272691D01*
X571227D01*
Y272367D01*
X571551D01*
Y272043D01*
X571875D01*
Y271720D01*
X572198D01*
Y271396D01*
X572522D01*
Y271072D01*
X572846D01*
Y270100D01*
X568960D01*
Y269777D01*
X568636D01*
Y270100D01*
X567988D01*
Y269777D01*
X565398D01*
Y269453D01*
X563778D01*
Y269129D01*
X562807D01*
Y268805D01*
X562159D01*
Y268481D01*
X561511D01*
Y268157D01*
X560864D01*
Y267833D01*
X560540D01*
Y267510D01*
X559892D01*
Y267186D01*
X559568D01*
Y266862D01*
X559244D01*
Y266538D01*
X558921D01*
Y266214D01*
X558597D01*
Y265890D01*
X558273D01*
Y265567D01*
X557949D01*
Y264919D01*
X557625D01*
Y264595D01*
X557301D01*
Y263947D01*
X556978D01*
Y263300D01*
X556654D01*
Y262004D01*
X556330D01*
Y259090D01*
X556654D01*
Y258118D01*
X556978D01*
Y257470D01*
X557301D01*
Y257146D01*
X557625D01*
Y256823D01*
X558273D01*
Y256499D01*
X560216D01*
Y256823D01*
X560864D01*
Y257146D01*
X561511D01*
Y257470D01*
X561835D01*
Y258118D01*
X562159D01*
Y259413D01*
X562483D01*
Y259737D01*
X562159D01*
Y260061D01*
X562483D01*
Y260385D01*
X562159D01*
Y262328D01*
X561835D01*
Y263623D01*
X561511D01*
Y264595D01*
X561188D01*
Y265243D01*
X562483D01*
Y264919D01*
X563131D01*
Y264595D01*
X563778D01*
Y264271D01*
X564102D01*
Y263947D01*
X564426D01*
Y263300D01*
X564750D01*
Y262652D01*
X565074D01*
Y261680D01*
X565398D01*
Y256823D01*
X565074D01*
Y256175D01*
X564750D01*
Y255527D01*
X564426D01*
Y254879D01*
X564102D01*
Y254556D01*
X563778D01*
Y254232D01*
X563455D01*
Y253908D01*
X562807D01*
Y253260D01*
X564426D01*
Y252936D01*
X569284D01*
Y253260D01*
X571551D01*
Y253584D01*
X573170D01*
Y253908D01*
X574789D01*
Y254232D01*
X576085D01*
Y254556D01*
X577056D01*
Y254879D01*
X578028D01*
Y255203D01*
X578999D01*
Y255527D01*
X579971D01*
Y255851D01*
X580942D01*
Y256175D01*
X581590D01*
Y256499D01*
X582562D01*
Y256823D01*
X583209D01*
Y257146D01*
X583857D01*
Y257470D01*
X584505D01*
Y257794D01*
X585476D01*
Y258118D01*
X585800D01*
Y258442D01*
X586448D01*
Y258766D01*
X587096D01*
Y259090D01*
X587743D01*
Y259413D01*
X588391D01*
Y259737D01*
X589039D01*
Y260061D01*
X589686D01*
Y260385D01*
X590334D01*
Y260709D01*
X590982D01*
Y261033D01*
X591629D01*
Y261357D01*
X592277D01*
Y261680D01*
X592925D01*
Y262004D01*
X593573D01*
Y262328D01*
X594220D01*
Y262652D01*
X594868D01*
Y262976D01*
X595516D01*
Y263300D01*
X596163D01*
Y263623D01*
X596487D01*
Y263947D01*
X597135D01*
Y264271D01*
X597783D01*
Y264595D01*
X598430D01*
Y264919D01*
X599078D01*
Y266862D01*
X599402D01*
Y267186D01*
X599078D01*
Y267510D01*
X599402D01*
Y269777D01*
X599726D01*
Y272367D01*
X600050D01*
Y272691D01*
X598754D01*
Y273015D01*
X596811D01*
Y273339D01*
X595516D01*
Y273663D01*
X594220D01*
Y273987D01*
X593249D01*
Y274310D01*
X591953D01*
Y274634D01*
X591306D01*
Y274958D01*
X590334D01*
Y275282D01*
X589686D01*
Y275606D01*
X588715D01*
Y275930D01*
X588067D01*
Y276254D01*
X587419D01*
Y276577D01*
X587096D01*
Y276901D01*
X586448D01*
Y277225D01*
X585800D01*
Y277549D01*
X585153D01*
Y277873D01*
X584829D01*
Y278197D01*
X584181D01*
Y278521D01*
X583857D01*
Y278844D01*
X583209D01*
Y279168D01*
X582886D01*
Y279492D01*
X582562D01*
Y279816D01*
X582238D01*
Y280140D01*
X581590D01*
Y280464D01*
X581266D01*
Y280788D01*
X580942D01*
Y281111D01*
X580619D01*
Y281435D01*
X580295D01*
Y281759D01*
X579971D01*
Y282083D01*
X579647D01*
Y282407D01*
X579323D01*
Y282731D01*
X578999D01*
Y283378D01*
X578675D01*
Y283702D01*
X578352D01*
Y284026D01*
X578028D01*
Y284674D01*
X577704D01*
Y284998D01*
X577380D01*
Y285645D01*
X577056D01*
Y286293D01*
X576732D01*
Y287264D01*
X576409D01*
Y289208D01*
X576732D01*
Y289855D01*
X577056D01*
Y290179D01*
X577380D01*
Y289855D01*
D02*
G37*
%LPC*%
G36*
X542728Y283378D02*
X539490D01*
Y283054D01*
X538842D01*
Y282731D01*
X538194D01*
Y282407D01*
X537870D01*
Y281759D01*
X537547D01*
Y281111D01*
X537223D01*
Y279168D01*
X537547D01*
Y278844D01*
Y278521D01*
X538194D01*
Y278197D01*
X539490D01*
Y278521D01*
X540461D01*
Y278844D01*
X541109D01*
Y279168D01*
X541433D01*
Y279492D01*
X542080D01*
Y279816D01*
X542728D01*
Y280140D01*
X543052D01*
Y280464D01*
X543700D01*
Y280788D01*
X544024D01*
Y281111D01*
X544347D01*
Y281435D01*
X544995D01*
Y281759D01*
X545319D01*
Y282083D01*
X545643D01*
Y282407D01*
X545319D01*
Y282731D01*
X544347D01*
Y283054D01*
X542728D01*
Y283378D01*
D02*
G37*
%LPD*%
D10*
X107630Y313690D02*
G03*
X107630Y313690I-1250J0D01*
G01*
X31949Y279589D02*
G03*
X31949Y279589I-1250J0D01*
G01*
D11*
X478282Y9525D02*
G03*
X478282Y9525I-762J0D01*
G01*
X502793Y68834D02*
Y201422D01*
X452247D02*
X502793D01*
X452247Y68834D02*
Y201422D01*
Y68834D02*
X502793D01*
D12*
X534450Y388620D02*
G03*
X534450Y388620I-45500J0D01*
G01*
X526590Y351280D02*
G03*
X526590Y351280I-500J0D01*
G01*
X628792Y69850D02*
Y171449D01*
X709791Y69849D02*
Y171449D01*
X628791Y69849D02*
X709791D01*
X628792Y171449D02*
X709791D01*
X22880Y294640D02*
X88880D01*
X22880Y374490D02*
Y383540D01*
Y349090D02*
Y354490D01*
Y323690D02*
Y329090D01*
Y294640D02*
Y303690D01*
Y383540D02*
X88880D01*
Y374490D02*
Y383540D01*
Y349090D02*
Y354490D01*
Y323690D02*
Y329090D01*
Y294640D02*
Y303690D01*
X176530Y10160D02*
Y429260D01*
X430530D01*
Y10160D02*
Y429260D01*
X176530Y10160D02*
X430530D01*
X27230Y58420D02*
X97230D01*
X18630Y134620D02*
X97230D01*
X64699Y175839D02*
Y274839D01*
X7199Y175839D02*
X64699D01*
X7199D02*
Y274839D01*
X64699D01*
X156200Y178180D02*
Y225680D01*
X135900Y178180D02*
X156200D01*
X135900D02*
Y225680D01*
X156200D01*
X146050D02*
Y230530D01*
Y173330D02*
Y178180D01*
X628792Y387349D02*
X709791D01*
X628791Y285749D02*
X709791D01*
Y387349D01*
X628792Y285750D02*
Y387349D01*
X509910Y287020D02*
X514760D01*
X457560D02*
X462410D01*
Y276870D02*
Y297170D01*
Y276870D02*
X509910D01*
Y297170D01*
X462410D02*
X509910D01*
X143510Y315570D02*
Y320420D01*
Y367920D02*
Y372770D01*
X133360Y367920D02*
X153660D01*
X133360Y320420D02*
Y367920D01*
Y320420D02*
X153660D01*
Y367920D01*
X315700Y272980D02*
X361700D01*
X315700Y168980D02*
Y272980D01*
Y168980D02*
X342900D01*
D13*
X610390Y19140D02*
Y189140D01*
X550390Y19140D02*
X610390D01*
X550390D02*
Y189140D01*
X610390D01*
D14*
X91435Y260350D02*
X76200D01*
Y252733D01*
X78739Y250193D01*
X88896D01*
X91435Y252733D01*
Y260350D01*
X88896Y234958D02*
X91435Y237497D01*
Y242576D01*
X88896Y245115D01*
X78739D01*
X76200Y242576D01*
Y237497D01*
X78739Y234958D01*
X76200Y214645D02*
X91435D01*
Y207027D01*
X88896Y204488D01*
X83818D01*
X81278Y207027D01*
Y214645D01*
X88896Y189253D02*
X91435Y191792D01*
Y196870D01*
X88896Y199410D01*
X78739D01*
X76200Y196870D01*
Y191792D01*
X78739Y189253D01*
X91435Y184175D02*
X76200D01*
Y176557D01*
X78739Y174018D01*
X81278D01*
X83818Y176557D01*
Y184175D01*
Y176557D01*
X86357Y174018D01*
X88896D01*
X91435Y176557D01*
Y184175D01*
X622300Y201925D02*
Y186690D01*
Y194307D01*
X632457D01*
Y201925D01*
Y186690D01*
X647692Y201925D02*
X637535D01*
Y186690D01*
X647692D01*
X637535Y194307D02*
X642613D01*
X652770Y186690D02*
Y196847D01*
X657849Y201925D01*
X662927Y196847D01*
Y186690D01*
Y194307D01*
X652770D01*
X668005Y201925D02*
X678162D01*
X673084D01*
Y186690D01*
X693397Y201925D02*
X683240D01*
Y186690D01*
X693397D01*
X683240Y194307D02*
X688319D01*
X698475Y186690D02*
Y201925D01*
X706093D01*
X708632Y199386D01*
Y194307D01*
X706093Y191768D01*
X698475D01*
X703554D02*
X708632Y186690D01*
X631187Y259080D02*
X621030D01*
X631187Y269237D01*
Y271776D01*
X628647Y274315D01*
X623569D01*
X621030Y271776D01*
X636265D02*
X638804Y274315D01*
X643883D01*
X646422Y271776D01*
Y269237D01*
X643883Y266698D01*
X641343D01*
X643883D01*
X646422Y264158D01*
Y261619D01*
X643883Y259080D01*
X638804D01*
X636265Y261619D01*
X651500Y271776D02*
X654039Y274315D01*
X659118D01*
X661657Y271776D01*
Y261619D01*
X659118Y259080D01*
X654039D01*
X651500Y261619D01*
Y271776D01*
X666735Y274315D02*
Y264158D01*
X671814Y259080D01*
X676892Y264158D01*
Y274315D01*
X681970Y259080D02*
Y269237D01*
X687049Y274315D01*
X692127Y269237D01*
Y259080D01*
Y266698D01*
X681970D01*
X707362Y271776D02*
X704823Y274315D01*
X699744D01*
X697205Y271776D01*
Y261619D01*
X699744Y259080D01*
X704823D01*
X707362Y261619D01*
X442722Y306832D02*
Y322067D01*
X450340D01*
X452879Y319528D01*
Y314450D01*
X450340Y311910D01*
X442722D01*
X447800D02*
X452879Y306832D01*
X465575D02*
Y322067D01*
X457957Y314450D01*
X468114D01*
X511814Y224792D02*
Y240028D01*
X519432D01*
X521971Y237488D01*
Y232410D01*
X519432Y229871D01*
X511814D01*
X516893D02*
X521971Y224792D01*
X527049Y237488D02*
X529588Y240028D01*
X534667D01*
X537206Y237488D01*
Y234949D01*
X534667Y232410D01*
X532127D01*
X534667D01*
X537206Y229871D01*
Y227332D01*
X534667Y224792D01*
X529588D01*
X527049Y227332D01*
X133858Y397764D02*
Y412999D01*
X141475D01*
X144015Y410460D01*
Y405382D01*
X141475Y402842D01*
X133858D01*
X138936D02*
X144015Y397764D01*
X159250D02*
X149093D01*
X159250Y407921D01*
Y410460D01*
X156711Y412999D01*
X151632D01*
X149093Y410460D01*
X136398Y255524D02*
Y270759D01*
X144016D01*
X146555Y268220D01*
Y263141D01*
X144016Y260602D01*
X136398D01*
X141476D02*
X146555Y255524D01*
X151633D02*
X156711D01*
X154172D01*
Y270759D01*
X151633Y268220D01*
X325625Y286003D02*
Y296160D01*
X323086Y298699D01*
X318007D01*
X315468Y296160D01*
Y286003D01*
X318007Y283464D01*
X323086D01*
X320546Y288542D02*
X325625Y283464D01*
X323086D02*
X325625Y286003D01*
X340860Y283464D02*
X330703D01*
X340860Y293621D01*
Y296160D01*
X338321Y298699D01*
X333242D01*
X330703Y296160D01*
X119380Y298452D02*
Y308608D01*
X116841Y311147D01*
X111763D01*
X109223Y308608D01*
Y298452D01*
X111763Y295912D01*
X116841D01*
X114302Y300991D02*
X119380Y295912D01*
X116841D02*
X119380Y298452D01*
X124458Y295912D02*
X129537D01*
X126998D01*
Y311147D01*
X124458Y308608D01*
X640081Y48257D02*
X635003D01*
X637542D01*
Y35562D01*
X635003Y33022D01*
X632463D01*
X629924Y35562D01*
X645159Y45718D02*
X647698Y48257D01*
X652777D01*
X655316Y45718D01*
Y43179D01*
X652777Y40640D01*
X650238D01*
X652777D01*
X655316Y38101D01*
Y35562D01*
X652777Y33022D01*
X647698D01*
X645159Y35562D01*
X80011Y283207D02*
X74932D01*
X77472D01*
Y270512D01*
X74932Y267973D01*
X72393D01*
X69854Y270512D01*
X95246Y267973D02*
X85089D01*
X95246Y278129D01*
Y280668D01*
X92707Y283207D01*
X87628D01*
X85089Y280668D01*
X609600Y306068D02*
X604522D01*
X607061D01*
Y293372D01*
X604522Y290833D01*
X601982D01*
X599443Y293372D01*
X614678Y290833D02*
X619757D01*
X617218D01*
Y306068D01*
X614678Y303528D01*
X13975Y157478D02*
X19054D01*
X16515D01*
Y142242D01*
X13975D01*
X19054D01*
X36828Y154938D02*
X34289Y157478D01*
X29210D01*
X26671Y154938D01*
Y144782D01*
X29210Y142242D01*
X34289D01*
X36828Y144782D01*
X41906Y142242D02*
X46985D01*
X44446D01*
Y157478D01*
X41906Y154938D01*
X552701Y219960D02*
X550162Y222499D01*
X545083D01*
X542544Y219960D01*
Y209803D01*
X545083Y207264D01*
X550162D01*
X552701Y209803D01*
X557779Y207264D02*
X562857D01*
X560318D01*
Y222499D01*
X557779Y219960D01*
X538486Y369567D02*
Y354333D01*
X546103D01*
X548643Y356872D01*
Y359411D01*
X546103Y361950D01*
X538486D01*
X546103D01*
X548643Y364489D01*
Y367028D01*
X546103Y369567D01*
X538486D01*
X553721Y354333D02*
Y369567D01*
X561338D01*
X563878Y367028D01*
Y361950D01*
X561338Y359411D01*
X553721D01*
X558799D02*
X563878Y354333D01*
X568956D02*
X574034D01*
X571495D01*
Y369567D01*
X568956Y367028D01*
M02*
