G04*
G04 #@! TF.GenerationSoftware,Altium Limited,Altium Designer,24.1.2 (44)*
G04*
G04 Layer_Color=2752767*
%FSLAX44Y44*%
%MOMM*%
G71*
G04*
G04 #@! TF.SameCoordinates,BD0B943F-0E77-4E2A-8F04-F263FF0033BB*
G04*
G04*
G04 #@! TF.FilePolarity,Positive*
G04*
G01*
G75*
%ADD49C,0.1270*%
%ADD50C,0.1693*%
%ADD51C,0.1016*%
D49*
X669290Y140970D02*
X664210Y151130D01*
X674370D01*
X669290Y140970D01*
Y90170D02*
X664210Y100330D01*
X674370D01*
X669290Y90170D01*
X696305Y23107D02*
X698845Y25647D01*
X701385D01*
X698845Y28187D01*
X701385Y30727D01*
X698845D01*
X696305Y33267D01*
X693765Y30727D01*
X691225D01*
X693765Y28187D01*
X691225Y25647D01*
X693765D01*
X696305Y23107D01*
Y25139D02*
X697829Y26663D01*
X699353D01*
X697829Y28187D01*
X699353Y29711D01*
X697829D01*
X696305Y31235D01*
X694781Y29711D01*
X693257D01*
X694781Y28187D01*
X693257Y26663D01*
X694781D01*
X696305Y25139D01*
Y405130D02*
X698845Y407670D01*
X701385D01*
X698845Y410210D01*
X701385Y412750D01*
X698845D01*
X696305Y415290D01*
X693765Y412750D01*
X691225D01*
X693765Y410210D01*
X691225Y407670D01*
X693765D01*
X696305Y405130D01*
Y407162D02*
X697829Y408686D01*
X699353D01*
X697829Y410210D01*
X699353Y411734D01*
X697829D01*
X696305Y413258D01*
X694781Y411734D01*
X693257D01*
X694781Y410210D01*
X693257Y408686D01*
X694781D01*
X696305Y407162D01*
X28285Y23107D02*
X30825Y25647D01*
X33365D01*
X30825Y28187D01*
X33365Y30727D01*
X30825D01*
X28285Y33267D01*
X25745Y30727D01*
X23205D01*
X25745Y28187D01*
X23205Y25647D01*
X25745D01*
X28285Y23107D01*
Y25139D02*
X29809Y26663D01*
X31333D01*
X29809Y28187D01*
X31333Y29711D01*
X29809D01*
X28285Y31235D01*
X26761Y29711D01*
X25237D01*
X26761Y28187D01*
X25237Y26663D01*
X26761D01*
X28285Y25139D01*
Y405130D02*
X30825Y407670D01*
X33365D01*
X30825Y410210D01*
X33365Y412750D01*
X30825D01*
X28285Y415290D01*
X25745Y412750D01*
X23205D01*
X25745Y410210D01*
X23205Y407670D01*
X25745D01*
X28285Y405130D01*
Y407162D02*
X29809Y408686D01*
X31333D01*
X29809Y410210D01*
X31333Y411734D01*
X29809D01*
X28285Y413258D01*
X26761Y411734D01*
X25237D01*
X26761Y410210D01*
X25237Y408686D01*
X26761D01*
X28285Y407162D01*
X88900Y308610D02*
Y318770D01*
X99060D01*
Y308610D01*
X88900D01*
Y334010D02*
Y344170D01*
X99060D01*
Y334010D01*
X88900D01*
Y359410D02*
Y369570D01*
X99060D01*
Y359410D01*
X88900D01*
X12700D02*
Y369570D01*
X22860D01*
Y359410D01*
X12700D01*
Y334010D02*
Y344170D01*
X22860D01*
Y334010D01*
X12700D01*
Y308610D02*
Y318770D01*
X22860D01*
Y308610D01*
X12700D01*
X303530Y87630D02*
X298450Y97790D01*
X308610D01*
X303530Y87630D01*
Y89662D02*
X300482Y95758D01*
X306578D01*
X303530Y89662D01*
Y341630D02*
X298450Y351790D01*
X308610D01*
X303530Y341630D01*
Y343662D02*
X300482Y349758D01*
X306578D01*
X303530Y343662D01*
X95250Y116840D02*
X97790D01*
X100330Y119380D01*
X102870Y116840D01*
X105410D01*
Y119380D01*
X102870Y121920D01*
X105410Y124460D01*
Y127000D01*
X102870D01*
X100330Y124460D01*
X97790Y127000D01*
X95250D01*
Y124460D01*
X97790Y121920D01*
X95250Y119380D01*
Y116840D01*
Y91440D02*
X97790D01*
X100330Y93980D01*
X102870Y91440D01*
X105410D01*
Y93980D01*
X102870Y96520D01*
X105410Y99060D01*
Y101600D01*
X102870D01*
X100330Y99060D01*
X97790Y101600D01*
X95250D01*
Y99060D01*
X97790Y96520D01*
X95250Y93980D01*
Y91440D01*
Y66040D02*
X97790D01*
X100330Y68580D01*
X102870Y66040D01*
X105410D01*
Y68580D01*
X102870Y71120D01*
X105410Y73660D01*
Y76200D01*
X102870D01*
X100330Y73660D01*
X97790Y76200D01*
X95250D01*
Y73660D01*
X97790Y71120D01*
X95250Y68580D01*
Y66040D01*
X19050D02*
X21590D01*
X24130Y68580D01*
X26670Y66040D01*
X29210D01*
Y68580D01*
X26670Y71120D01*
X29210Y73660D01*
Y76200D01*
X26670D01*
X24130Y73660D01*
X21590Y76200D01*
X19050D01*
Y73660D01*
X21590Y71120D01*
X19050Y68580D01*
Y66040D01*
Y91440D02*
X21590D01*
X24130Y93980D01*
X26670Y91440D01*
X29210D01*
Y93980D01*
X26670Y96520D01*
X29210Y99060D01*
Y101600D01*
X26670D01*
X24130Y99060D01*
X21590Y101600D01*
X19050D01*
Y99060D01*
X21590Y96520D01*
X19050Y93980D01*
Y91440D01*
Y116840D02*
X21590D01*
X24130Y119380D01*
X26670Y116840D01*
X29210D01*
Y119380D01*
X26670Y121920D01*
X29210Y124460D01*
Y127000D01*
X26670D01*
X24130Y124460D01*
X21590Y127000D01*
X19050D01*
Y124460D01*
X21590Y121920D01*
X19050Y119380D01*
Y116840D01*
X472440Y26416D02*
X477520Y31496D01*
X482600Y26416D01*
X477520Y21336D01*
X472440Y26416D01*
Y243840D02*
X477520Y248920D01*
X482600Y243840D01*
X477520Y238760D01*
X472440Y243840D01*
X25619Y245259D02*
X28159Y250338D01*
X25619Y255418D01*
X30699Y252878D01*
X35779Y255418D01*
X33239Y250338D01*
X35779Y245259D01*
X30699Y247799D01*
X25619Y245259D01*
Y220259D02*
X28159Y225338D01*
X25619Y230418D01*
X30699Y227878D01*
X35779Y230418D01*
X33239Y225338D01*
X35779Y220259D01*
X30699Y222799D01*
X25619Y220259D01*
Y195259D02*
X28159Y200338D01*
X25619Y205418D01*
X30699Y202878D01*
X35779Y205418D01*
X33239Y200338D01*
X35779Y195259D01*
X30699Y197799D01*
X25619Y195259D01*
X50699Y179258D02*
X53239Y181798D01*
X55779D01*
X53239Y184338D01*
X55779Y186879D01*
X53239D01*
X50699Y189419D01*
X48159Y186879D01*
X45619D01*
X48159Y184338D01*
X45619Y181798D01*
X48159D01*
X50699Y179258D01*
X143510Y237740D02*
Y235200D01*
X148590D01*
Y237740D01*
X151130D01*
Y242820D01*
X148590D01*
Y245360D01*
X143510D01*
Y242820D01*
X140970D01*
Y237740D01*
X143510D01*
Y161040D02*
Y158500D01*
X148590D01*
Y161040D01*
X151130D01*
Y166120D01*
X148590D01*
Y168660D01*
X143510D01*
Y166120D01*
X140970D01*
Y161040D01*
X143510D01*
X669290Y306070D02*
X664210Y316230D01*
X674370D01*
X669290Y306070D01*
Y356870D02*
X664210Y367030D01*
X674370D01*
X669290Y356870D01*
X521970Y284480D02*
Y281940D01*
X527050D01*
Y284480D01*
X529590D01*
Y289560D01*
X527050D01*
Y292100D01*
X521970D01*
Y289560D01*
X519430D01*
Y284480D01*
X521970D01*
X445270D02*
Y281940D01*
X450350D01*
Y284480D01*
X452890D01*
Y289560D01*
X450350D01*
Y292100D01*
X445270D01*
Y289560D01*
X442730D01*
Y284480D01*
X445270D01*
X140970Y303280D02*
Y300740D01*
X146050D01*
Y303280D01*
X148590D01*
Y308360D01*
X146050D01*
Y310900D01*
X140970D01*
Y308360D01*
X138430D01*
Y303280D01*
X140970D01*
Y379980D02*
Y377440D01*
X146050D01*
Y379980D01*
X148590D01*
Y385060D01*
X146050D01*
Y387600D01*
X140970D01*
Y385060D01*
X138430D01*
Y379980D01*
X140970D01*
X337820Y190400D02*
Y200560D01*
X347980D01*
Y190400D01*
X337820D01*
X339852Y192432D02*
Y198528D01*
X345948D01*
Y192432D01*
X339852D01*
X337820Y215900D02*
Y226060D01*
X347980D01*
Y215900D01*
X337820D01*
X339852Y217932D02*
Y224028D01*
X345948D01*
Y217932D01*
X339852D01*
X337820Y241400D02*
Y251560D01*
X347980D01*
Y241400D01*
X337820D01*
X339852Y243432D02*
Y249528D01*
X345948D01*
Y243432D01*
X339852D01*
D50*
X519530Y363120D02*
G03*
X519530Y363120I-5080J0D01*
G01*
Y414120D02*
G03*
X519530Y414120I-5080J0D01*
G01*
X468530D02*
G03*
X468530Y414120I-5080J0D01*
G01*
Y363120D02*
G03*
X468530Y363120I-5080J0D01*
G01*
X585470Y141640D02*
G03*
X585470Y141640I-5080J0D01*
G01*
Y66640D02*
G03*
X585470Y66640I-5080J0D01*
G01*
D51*
X583438Y141640D02*
G03*
X583438Y141640I-3048J0D01*
G01*
Y66640D02*
G03*
X583438Y66640I-3048J0D01*
G01*
M02*
