G04*
G04 #@! TF.GenerationSoftware,Altium Limited,Altium Designer,24.1.2 (44)*
G04*
G04 Layer_Color=128*
%FSLAX44Y44*%
%MOMM*%
G71*
G04*
G04 #@! TF.SameCoordinates,BD0B943F-0E77-4E2A-8F04-F263FF0033BB*
G04*
G04*
G04 #@! TF.FilePolarity,Positive*
G04*
G01*
G75*
%ADD49C,0.1270*%
D49*
X662790Y146050D02*
X675790D01*
X669290Y139550D02*
Y152550D01*
X662790Y95250D02*
X675790D01*
X669290Y88750D02*
Y101750D01*
X680305Y28187D02*
X712305D01*
X696305Y12187D02*
Y44187D01*
X680305Y410210D02*
X712305D01*
X696305Y394210D02*
Y426210D01*
X12285Y28187D02*
X44285D01*
X28285Y12187D02*
Y44187D01*
X12285Y410210D02*
X44285D01*
X28285Y394210D02*
Y426210D01*
X90230Y313690D02*
X97730D01*
X93980Y309940D02*
Y317440D01*
X90230Y339090D02*
X97730D01*
X93980Y335340D02*
Y342840D01*
X90230Y364490D02*
X97730D01*
X93980Y360740D02*
Y368240D01*
X14030Y364490D02*
X21530D01*
X17780Y360740D02*
Y368240D01*
X14030Y339090D02*
X21530D01*
X17780Y335340D02*
Y342840D01*
X14030Y313690D02*
X21530D01*
X17780Y309940D02*
Y317440D01*
X290180Y92710D02*
X316880D01*
X303530Y79360D02*
Y106060D01*
X290180Y346710D02*
X316880D01*
X303530Y333360D02*
Y360060D01*
X96830Y121920D02*
X103830D01*
X100330Y118420D02*
Y125420D01*
X96830Y96520D02*
X103830D01*
X100330Y93020D02*
Y100020D01*
X96830Y71120D02*
X103830D01*
X100330Y67620D02*
Y74620D01*
X20630Y71120D02*
X27630D01*
X24130Y67620D02*
Y74620D01*
X20630Y96520D02*
X27630D01*
X24130Y93020D02*
Y100020D01*
X20630Y121920D02*
X27630D01*
X24130Y118420D02*
Y125420D01*
X472059Y26416D02*
X482981D01*
X477520Y20955D02*
Y31877D01*
X472059Y243840D02*
X482981D01*
X477520Y238379D02*
Y249301D01*
X509400Y363120D02*
X519500D01*
X514450Y358070D02*
Y368170D01*
X509400Y414120D02*
X519500D01*
X514450Y409070D02*
Y419170D01*
X458400Y414120D02*
X468500D01*
X463450Y409070D02*
Y419170D01*
X458400Y363120D02*
X468500D01*
X463450Y358070D02*
Y368170D01*
X26199Y250338D02*
X35199D01*
X30699Y245839D02*
Y254839D01*
X26199Y225338D02*
X35199D01*
X30699Y220839D02*
Y229839D01*
X26199Y200338D02*
X35199D01*
X30699Y195839D02*
Y204839D01*
X45199Y184338D02*
X56199D01*
X50699Y178839D02*
Y189839D01*
X142800Y240280D02*
X149300D01*
X146050Y237030D02*
Y243530D01*
X142800Y163580D02*
X149300D01*
X146050Y160330D02*
Y166830D01*
X662790Y311150D02*
X675790D01*
X669290Y304650D02*
Y317650D01*
X662790Y361950D02*
X675790D01*
X669290Y355450D02*
Y368450D01*
X521260Y287020D02*
X527760D01*
X524510Y283770D02*
Y290270D01*
X444560Y287020D02*
X451060D01*
X447810Y283770D02*
Y290270D01*
X140260Y305820D02*
X146760D01*
X143510Y302570D02*
Y309070D01*
X140260Y382520D02*
X146760D01*
X143510Y379270D02*
Y385770D01*
X336300Y195480D02*
X349500D01*
X342900Y188880D02*
Y202080D01*
X336300Y220980D02*
X349500D01*
X342900Y214380D02*
Y227580D01*
X336300Y246480D02*
X349500D01*
X342900Y239880D02*
Y253080D01*
X576140Y141640D02*
X584640D01*
X580390Y137390D02*
Y145890D01*
X576140Y66640D02*
X584640D01*
X580390Y62390D02*
Y70890D01*
M02*
