G04*
G04 #@! TF.GenerationSoftware,Altium Limited,Altium Designer,24.1.2 (44)*
G04*
G04 Layer_Physical_Order=2*
G04 Layer_Color=16711680*
%FSLAX44Y44*%
%MOMM*%
G71*
G04*
G04 #@! TF.SameCoordinates,BD0B943F-0E77-4E2A-8F04-F263FF0033BB*
G04*
G04*
G04 #@! TF.FilePolarity,Positive*
G04*
G01*
G75*
%ADD18R,1.2500X1.2500*%
%ADD19C,1.2500*%
%ADD20R,4.0700X4.0700*%
%ADD21C,4.0700*%
%ADD24R,1.6002X1.6002*%
%ADD25C,1.6002*%
%ADD27R,1.4000X1.4000*%
%ADD28C,1.4000*%
%ADD29C,1.1000*%
%ADD30R,1.1500X1.1500*%
%ADD31C,1.1500*%
%ADD32R,1.1500X1.1500*%
%ADD36C,1.0000*%
%ADD37C,3.0000*%
%ADD38C,2.2000*%
%ADD39C,1.8000*%
%ADD40R,1.8000X1.8000*%
%ADD41R,1.1000X1.1000*%
%ADD42C,1.5500*%
%ADD43R,1.9800X1.9800*%
%ADD44C,1.9800*%
%ADD45C,1.3810*%
D18*
X93980Y313690D02*
D03*
D19*
Y339090D02*
D03*
Y364490D02*
D03*
X17780D02*
D03*
Y339090D02*
D03*
Y313690D02*
D03*
D20*
X303530Y92710D02*
D03*
D21*
Y346710D02*
D03*
D24*
X477520Y26416D02*
D03*
D25*
Y243840D02*
D03*
D27*
X30699Y250338D02*
D03*
D28*
Y225338D02*
D03*
Y200338D02*
D03*
D29*
X100330Y121920D02*
D03*
Y96520D02*
D03*
Y71120D02*
D03*
X24130D02*
D03*
Y96520D02*
D03*
X50699Y184338D02*
D03*
D30*
X146050Y240280D02*
D03*
X143510Y382520D02*
D03*
D31*
X146050Y163580D02*
D03*
X524510Y287020D02*
D03*
X143510Y305820D02*
D03*
D32*
X447810Y287020D02*
D03*
D36*
X100601Y71120D02*
X126762D01*
X302122Y246480D01*
X342900D01*
D37*
X613410Y201930D02*
Y255270D01*
Y201930D02*
X669290Y146050D01*
X613410Y255270D02*
X669290Y311150D01*
X567590Y414120D02*
X666750Y314960D01*
X514450Y414120D02*
X567590D01*
D38*
X146050Y163580D02*
X159770D01*
X163686Y166370D02*
X310136Y312820D01*
X162560Y166370D02*
X163686D01*
X159770Y163580D02*
X162560Y166370D01*
X317568Y312820D02*
X318438Y313690D01*
X310136Y312820D02*
X317568D01*
X318438Y313690D02*
X465020D01*
X514450Y363120D01*
D39*
X669290Y146050D02*
D03*
Y361950D02*
D03*
D40*
Y95250D02*
D03*
Y311150D02*
D03*
D41*
X24130Y121920D02*
D03*
D42*
X514450Y363120D02*
D03*
Y414120D02*
D03*
X463450D02*
D03*
Y363120D02*
D03*
D43*
X342900Y195480D02*
D03*
D44*
Y220980D02*
D03*
Y246480D02*
D03*
D45*
X580390Y141640D02*
D03*
Y66640D02*
D03*
M02*
