G04*
G04 #@! TF.GenerationSoftware,Altium Limited,Altium Designer,24.1.2 (44)*
G04*
G04 Layer_Color=32768*
%FSLAX44Y44*%
%MOMM*%
G71*
G04*
G04 #@! TF.SameCoordinates,BD0B943F-0E77-4E2A-8F04-F263FF0033BB*
G04*
G04*
G04 #@! TF.FilePolarity,Positive*
G04*
G01*
G75*
%ADD11C,0.1524*%
%ADD13C,0.1000*%
%ADD48C,0.0500*%
G36*
X488061Y67564D02*
Y15875D01*
X466979D01*
Y67564D01*
X450977D01*
Y202692D01*
X466979D01*
Y254381D01*
X488061D01*
Y202692D01*
X504063D01*
Y67564D01*
X488061D01*
D02*
G37*
D11*
X466979Y15875D02*
X488061D01*
X466979D02*
Y67564D01*
Y202692D02*
Y254381D01*
X488061D01*
Y202692D02*
Y254381D01*
Y15875D02*
Y67564D01*
X504063D01*
X450977D02*
X466979D01*
X450977D02*
Y202692D01*
X466979D01*
X488061D02*
X504063D01*
Y67564D02*
Y202692D01*
D13*
X669290Y115650D02*
Y125650D01*
X664290Y120650D02*
X674290D01*
X664290Y336550D02*
X674290D01*
X669290Y331550D02*
Y341550D01*
X620390Y9140D02*
Y199140D01*
X540390Y9140D02*
X620390D01*
X540390D02*
Y199140D01*
X620390D01*
D48*
X627790Y172449D02*
X710791D01*
X627791Y63151D02*
Y172449D01*
X710791Y63151D02*
Y172449D01*
X627791Y63151D02*
X710791D01*
X16130Y55920D02*
Y137120D01*
Y55920D02*
X108330D01*
Y137120D01*
X16130D02*
X108330D01*
X627791Y279051D02*
X710791D01*
Y388349D01*
X627791Y279051D02*
Y388349D01*
X627790D02*
X710791D01*
X313200Y166480D02*
Y275480D01*
X364200D01*
Y166480D02*
Y275480D01*
X313200Y166480D02*
X364200D01*
M02*
