G04*
G04 #@! TF.GenerationSoftware,Altium Limited,Altium Designer,24.1.2 (44)*
G04*
G04 Layer_Color=16711935*
%FSLAX44Y44*%
%MOMM*%
G71*
G04*
G04 #@! TF.SameCoordinates,BD0B943F-0E77-4E2A-8F04-F263FF0033BB*
G04*
G04*
G04 #@! TF.FilePolarity,Positive*
G04*
G01*
G75*
%ADD12C,0.2000*%
%ADD13C,0.1000*%
%ADD14C,0.2540*%
%ADD46C,0.0000*%
%ADD47C,0.0254*%
D12*
X534450Y388620D02*
G03*
X534450Y388620I-45500J0D01*
G01*
X610390Y19140D02*
Y189140D01*
X550390Y19140D02*
X610390D01*
X550390D02*
Y189140D01*
X610390D01*
D13*
X702561Y68562D02*
X704060Y66780D01*
X702561Y68562D02*
Y69849D01*
X704060Y64150D02*
Y66778D01*
X628791Y69849D02*
Y171449D01*
X709791Y69849D02*
Y171449D01*
X628791Y69849D02*
X709791D01*
X628791Y171449D02*
X709791D01*
X696923Y64150D02*
X704060D01*
X696922Y64151D02*
X696923Y64150D01*
X696922Y64149D02*
Y66778D01*
X698422Y68562D02*
Y69849D01*
X696920Y66780D02*
X698422Y68562D01*
X27230Y121920D02*
X39930Y134620D01*
X27230Y58420D02*
Y134620D01*
Y58420D02*
X97230D01*
Y134620D01*
X27230D02*
X97230D01*
X696920Y282680D02*
X698422Y284463D01*
Y285749D01*
X696922Y280049D02*
Y282678D01*
Y280051D02*
X696923Y280050D01*
X704060D01*
X628791Y387349D02*
X709791D01*
X628791Y285749D02*
X709791D01*
Y387349D01*
X628791Y285749D02*
Y387349D01*
X704060Y280050D02*
Y282678D01*
X702561Y284463D02*
Y285749D01*
Y284463D02*
X704060Y282680D01*
X315700Y168980D02*
Y272980D01*
X361700D01*
Y168980D02*
Y272980D01*
X315700Y168980D02*
X361700D01*
X315700Y181730D02*
X328450Y168980D01*
D14*
X0Y0D02*
X723900D01*
Y440690D01*
X0D02*
X723900D01*
X0Y0D02*
Y440690D01*
D46*
X478282Y72644D02*
G03*
X478282Y72644I-762J0D01*
G01*
D47*
X477520Y26416D02*
Y70104D01*
Y200152D02*
Y243840D01*
X501523Y70104D02*
Y200152D01*
X453517D02*
X501523D01*
X453517Y70104D02*
Y200152D01*
Y70104D02*
X501523D01*
M02*
