M48
;Layer_Color=9474304
;FILE_FORMAT=4:4
METRIC,LZ
;TYPE=PLATED
T01F00S00C0.6500
T02F00S00C0.7000
T03F00S00C0.7500
T04F00S00C0.8500
T05F00S00C0.9000
T06F00S00C1.0100
T07F00S00C1.0922
T08F00S00C1.3000
T09F00S00C1.3200
T10F00S00C2.6700
T11F00S00C3.2000
;TYPE=NON_PLATED
T12F00S00C1.1000
%
T01
X0014605Y0016358
Y0024028
X0014351Y0030582
Y0038252
X0044781Y0028702
X0052451
T02
X0010033Y0007112
Y0009652
Y0012192
X0002413
Y0009652
Y0007112
T03
X0001778Y0031369
Y0033909
Y0036449
X0009398
Y0033909
Y0031369
T04
X0058039Y0006664
Y0014164
T05
X00030699Y00200338
Y00225338
Y00250338
T06
X0046345Y0036312
X0051445
Y0041412
X0046345
T07
X0047752Y00026416
Y0024384
T08
X0066929Y0009525
Y0014605
Y0031115
Y0036195
T09
X003429Y0019548
Y0022098
Y0024648
T10
X0030353Y0009271
Y0034671
T11
X00696305Y00028187
X00028285
Y0041021
X00696305
T12
X00050699Y00184338
M30
