G04*
G04 #@! TF.GenerationSoftware,Altium Limited,Altium Designer,24.1.2 (44)*
G04*
G04 Layer_Color=0*
%FSLAX44Y44*%
%MOMM*%
G71*
G04*
G04 #@! TF.SameCoordinates,48E260C1-2FA9-4A74-8A97-B6B365FA718B*
G04*
G04*
G04 #@! TF.FilePolarity,Positive*
G04*
G01*
G75*
%ADD16C,0.1000*%
D16*
X60870Y370440D02*
X70870D01*
X65870Y365440D02*
Y375440D01*
X777240Y383620D02*
Y393620D01*
X772240Y388620D02*
X782240D01*
X877650Y208000D02*
X887650D01*
X882650Y203000D02*
Y213000D01*
X722630Y128350D02*
Y138350D01*
X717630Y133350D02*
X727630D01*
X480140Y387350D02*
X490140D01*
X485140Y382350D02*
Y392350D01*
X480180Y514160D02*
Y524160D01*
X475180Y519160D02*
X485180D01*
X412750Y513160D02*
Y523160D01*
X407750Y518160D02*
X417750D01*
X246380Y600790D02*
Y610790D01*
X241380Y605790D02*
X251380D01*
X781050Y340440D02*
Y350440D01*
X776050Y345440D02*
X786050D01*
X405210Y646430D02*
X415210D01*
X410210Y641430D02*
Y651430D01*
X332740Y396320D02*
Y406320D01*
X327740Y401320D02*
X337740D01*
X156290Y443230D02*
X166290D01*
X161290Y438230D02*
Y448230D01*
X829310Y368380D02*
Y378380D01*
X824310Y373380D02*
X834310D01*
X782320Y559048D02*
Y569048D01*
X777320Y564048D02*
X787320D01*
X781050Y485220D02*
Y495220D01*
X776050Y490220D02*
X786050D01*
X387830Y722010D02*
X397830D01*
X392830Y717010D02*
Y727010D01*
X214800Y698980D02*
Y708980D01*
X209800Y703980D02*
X219800D01*
X289079Y662940D02*
X299079D01*
X294079Y657940D02*
Y667940D01*
X297092Y605790D02*
X307092D01*
X302092Y600790D02*
Y610790D01*
X847170Y590550D02*
X857170D01*
X852170Y585550D02*
Y595550D01*
X645240Y735330D02*
X655240D01*
X650240Y730330D02*
Y740330D01*
X1056720Y228600D02*
X1066720D01*
X1061720Y223600D02*
Y233600D01*
X847090Y514430D02*
Y524430D01*
X842090Y519430D02*
X852090D01*
X1235710Y182960D02*
Y192960D01*
X1230710Y187960D02*
X1240710D01*
X312420Y114380D02*
Y124380D01*
X307420Y119380D02*
X317420D01*
X1019810Y405210D02*
Y415210D01*
X1014810Y410210D02*
X1024810D01*
X525860Y133350D02*
X535860D01*
X530860Y128350D02*
Y138350D01*
X859870Y373380D02*
X869870D01*
X864870Y368380D02*
Y378380D01*
X807720Y720170D02*
Y730170D01*
X802720Y725170D02*
X812720D01*
X576412Y727790D02*
Y737790D01*
X571412Y732790D02*
X581412D01*
X1060450Y558880D02*
Y568880D01*
X1055450Y563880D02*
X1065450D01*
X482720Y561420D02*
Y571420D01*
X477720Y566420D02*
X487720D01*
X934320Y721270D02*
Y731270D01*
X929320Y726270D02*
X939320D01*
X577850Y664290D02*
Y674290D01*
X572850Y669290D02*
X582850D01*
X850900Y637620D02*
Y647620D01*
X845900Y642620D02*
X855900D01*
X311150Y246460D02*
Y256460D01*
X306150Y251460D02*
X316150D01*
M02*
