G04*
G04 #@! TF.GenerationSoftware,Altium Limited,Altium Designer,24.1.2 (44)*
G04*
G04 Layer_Color=32768*
%FSLAX44Y44*%
%MOMM*%
G71*
G04*
G04 #@! TF.SameCoordinates,48E260C1-2FA9-4A74-8A97-B6B365FA718B*
G04*
G04*
G04 #@! TF.FilePolarity,Positive*
G04*
G01*
G75*
%ADD16C,0.1000*%
%ADD95C,0.0500*%
D16*
X1133210Y602960D02*
Y761960D01*
X1200710D01*
Y602960D02*
Y761960D01*
X1133210Y602960D02*
X1200710D01*
X669370Y509270D02*
X679370D01*
X674370Y504270D02*
Y514270D01*
X106630Y12530D02*
X196130D01*
X106630D02*
Y264530D01*
X196130D01*
Y12530D02*
Y264530D01*
X1046480Y711280D02*
Y721280D01*
X1041480Y716280D02*
X1051480D01*
X1198960Y400050D02*
X1208960D01*
X1203960Y395050D02*
Y405050D01*
X72470Y505460D02*
X82470D01*
X77470Y500460D02*
Y510460D01*
X74370Y763160D02*
X141870D01*
X74370Y604160D02*
Y763160D01*
Y604160D02*
X141870D01*
Y763160D01*
X1197690Y538480D02*
X1207690D01*
X1202690Y533480D02*
Y543480D01*
X1176020Y75010D02*
Y85010D01*
X1171020Y80010D02*
X1181020D01*
X1035050Y75010D02*
Y85010D01*
X1030050Y80010D02*
X1040050D01*
X891540Y62310D02*
Y72310D01*
X886540Y67310D02*
X896540D01*
X679450Y128350D02*
Y138350D01*
X674450Y133350D02*
X684450D01*
X468690Y647310D02*
Y747310D01*
X539690D01*
Y647310D02*
Y747310D01*
X468690Y647310D02*
X539690D01*
X406480Y591820D02*
X416480D01*
X411480Y586820D02*
Y596820D01*
X778590Y642620D02*
X788590D01*
X783590Y637620D02*
Y647620D01*
X1060530Y191770D02*
X1070530D01*
X1065530Y186770D02*
Y196770D01*
X49530Y133430D02*
Y143430D01*
X44530Y138430D02*
X54530D01*
D95*
X538540Y603560D02*
G03*
X522840Y587860I0J-15700D01*
G01*
Y499260D02*
G03*
X538540Y483560I15700J0D01*
G01*
X558740D02*
G03*
X574440Y499260I0J15700D01*
G01*
Y587860D02*
G03*
X558740Y603560I-15700J0D01*
G01*
X1272020Y281940D02*
G03*
X1272020Y281940I-25000J0D01*
G01*
X945040Y67310D02*
G03*
X945040Y67310I-53500J0D01*
G01*
X522840Y499260D02*
Y587860D01*
X538540Y483560D02*
X558740D01*
X574440Y499260D02*
Y587860D01*
X538540Y603560D02*
X558740D01*
X279740Y410160D02*
X385740D01*
X279740D02*
Y459160D01*
X385740D01*
Y410160D02*
Y459160D01*
X1103979Y674781D02*
Y757781D01*
X994681D02*
X1103979D01*
X994681Y674781D02*
X1103979D01*
X994681Y674780D02*
Y757781D01*
X894930Y599880D02*
X969430D01*
Y654880D01*
X894930D02*
X969430D01*
X894930Y599880D02*
Y654880D01*
X1162461Y342551D02*
X1245461D01*
Y451849D01*
X1162461Y342551D02*
Y451849D01*
X1162460D02*
X1245461D01*
X35969Y562959D02*
X118969D01*
X35969Y453661D02*
Y562959D01*
X118969Y453661D02*
Y562959D01*
X35969Y453661D02*
X118970D01*
X1161191Y480981D02*
X1244191D01*
Y590279D01*
X1161191Y480981D02*
Y590279D01*
X1161190D02*
X1244191D01*
X1118521Y38509D02*
Y121509D01*
Y38509D02*
X1227819D01*
X1118521Y121509D02*
X1227819D01*
Y38509D02*
Y121510D01*
X977551Y38509D02*
Y121509D01*
Y38509D02*
X1086849D01*
X977551Y121509D02*
X1086849D01*
Y38509D02*
Y121510D01*
X653950Y217350D02*
X711950D01*
X653950Y49350D02*
X711950D01*
X653950D02*
Y217350D01*
X711950Y49350D02*
Y217350D01*
X369790Y567810D02*
Y646310D01*
X333790Y567810D02*
X369790D01*
X333790D02*
Y646310D01*
X369790D01*
X388980Y580820D02*
Y602820D01*
X433980Y580820D02*
Y602820D01*
X388980D02*
X433980D01*
X388980Y580820D02*
X433980D01*
X802590Y633120D02*
Y652120D01*
X764590Y633120D02*
Y652120D01*
Y633120D02*
X802590D01*
X764590Y652120D02*
X802590D01*
X525990Y78150D02*
Y188550D01*
X473990Y78150D02*
X525990D01*
X473990D02*
Y188550D01*
X525990D01*
X8029Y86631D02*
X91030D01*
X91029D02*
Y195929D01*
X8029Y86631D02*
Y195929D01*
X91029D01*
X964610Y400210D02*
X1075010D01*
Y348310D02*
Y400210D01*
X964610Y348310D02*
X1075010D01*
X964610D02*
Y400210D01*
M02*
