M48
;Layer_Color=9474304
;FILE_FORMAT=4:4
METRIC,LZ
;TYPE=PLATED
T01F00S00C0.6000
T02F00S00C0.6300
T03F00S00C0.6500
T04F00S00C0.7000
T05F00S00C0.8000
T06F00S00C0.9000
T07F00S00C1.0000
T08F00S00C1.1000
T09F00S00C1.2100
T10F00S00C1.2800
T11F00S00C1.2900
T12F00S00C1.3000
T13F00S00C1.4500
T14F00S00C1.5000
T15F00S00C1.6000
T16F00S00C2.0000
T17F00S00C3.2000
;TYPE=NON_PLATED
T18F00S00C1.3000
%
T01
X0060579Y0031369
X0073152Y0028321
X0074549Y0044704
X0076835Y004445
X0080772Y0050292
X0079883Y005207
X0092202Y0052705
X0060452Y0051054
X0037973Y0052959
X0040005Y005715
X0043434Y0062357
X0039751Y0066548
X0025781Y0066294
X0055372Y0064008
X0059055Y0060452
X0060452Y0055245
X00662585Y00709245
X0069342Y0069977
X0080645Y006223
X0081026Y0057023
X0089408Y0057912
X0087884Y0064262
X0088519Y0068072
X0118237Y0059817
T02
X0054864Y0051916
Y0056796
T03
X0082931Y0033503
X0086487
Y0041173
X0082931
X0048514Y004257
Y00349
T04
X0123952Y0028194
X0125452
T05
X0123571Y0017046
Y0020546
X0088265Y001905
Y002255
X0041783Y0072136
X0039283
X0036783
X0102245Y0056388
X0109845
T06
X0089154Y0004231
Y0009231
X0071247Y0034417
Y0036957
Y0039497
Y0042037
Y0044577
Y0047117
Y0049657
Y0052197
X0063627
Y0049657
Y0047117
Y0044577
Y0042037
Y0039497
Y0036957
Y0034417
X0007112Y0034544
Y0037044
Y0039544
X0020955Y0067898
Y0070398
Y0072898
X0063627Y0067437
Y0064897
Y0062357
Y0059817
Y0057277
Y0054737
X0071247
Y0057277
Y0059817
Y0062357
Y0064897
Y0067437
X0077022Y0073042
X0079522
X0082022
X0084522
X0090932Y0073152
X0093432
X0095932
T07
X0031242Y0008188
X0083439Y0049403
Y0051943
X0085979
Y0049403
X0035555Y0025146
X0026675
X0031242Y0015688
X0010287Y0063366
Y0065866
Y0068366
Y0070866
Y0073366
X0083439Y0054483
X0085979
X0117221Y0063246
Y0065746
Y0068246
Y0070746
Y0073246
T08
X0104013Y0019177
X0106553
X0109093
T09
X0030734Y0044196
X0033274
X0035814
T10
X0099441Y0036576
X0101981
X0104521
T11
X0049149Y0010795
Y0013335
Y0015875
T12
X0004953Y0011303
X0100965Y0008001
X0106045
X0115062
X0120142
X0120396Y0037465
Y0042545
X0120269Y0051308
X0007747Y0053086
Y0048006
X0004953Y0016383
X0102108Y0071628
X0107188
X0120269Y0056388
T13
X0015113Y0006203
Y0011303
Y0016403
Y0021503
T14
X0016129Y0033765
Y0054881
T15
X0067945Y0007885
Y0013335
Y0018785
T16
X0054186Y0004285
X0073363
X0097122Y002396
X0115222
X0111031Y0042121
X0092931
X0073363Y0022385
X0054186
X0042324Y0039032
X0024224
T17
X0003175Y000381
X01253456Y0003175
X0003175Y0077343
X01253456Y0077089
T18
X0012287Y0074966
X0115221Y0061646
M30
