G04*
G04 #@! TF.GenerationSoftware,Altium Limited,Altium Designer,24.1.2 (44)*
G04*
G04 Layer_Color=8388736*
%FSLAX44Y44*%
%MOMM*%
G71*
G04*
G04 #@! TF.SameCoordinates,48E260C1-2FA9-4A74-8A97-B6B365FA718B*
G04*
G04*
G04 #@! TF.FilePolarity,Positive*
G04*
G01*
G75*
%ADD11C,0.2000*%
%ADD13C,0.1500*%
D11*
X37120Y419940D02*
X94620D01*
X37120Y320940D02*
Y419940D01*
Y320940D02*
X94620D01*
Y419940D01*
X761240Y380620D02*
Y396620D01*
Y380620D02*
X793240D01*
Y396620D01*
X761240D02*
X793240D01*
X804130Y16350D02*
Y250350D01*
X641130Y16350D02*
X804130D01*
X641130D02*
Y250350D01*
X804130D01*
X474990Y363600D02*
X495290D01*
Y411100D01*
X474990D02*
X495290D01*
X474990Y363600D02*
Y411100D01*
X491180Y511910D02*
Y526410D01*
X469180D02*
X491180D01*
X469180Y511910D02*
Y526410D01*
Y511910D02*
X491180D01*
X428250Y510410D02*
Y525910D01*
X397250D02*
X428250D01*
X397250Y510410D02*
Y525910D01*
Y510410D02*
X428250D01*
X236330Y599540D02*
Y612040D01*
Y599540D02*
X256430D01*
Y612040D01*
X236330D02*
X256430D01*
X797050Y336940D02*
Y353940D01*
X765050D02*
X797050D01*
X765050Y336940D02*
Y353940D01*
Y336940D02*
X797050D01*
X394710Y638680D02*
X425710D01*
X394710D02*
Y654180D01*
X425710D01*
Y638680D02*
Y654180D01*
X449740Y319820D02*
Y482820D01*
X215740D02*
X449740D01*
X215740Y319820D02*
Y482820D01*
Y319820D02*
X449740D01*
X134790Y490730D02*
X187790D01*
X134790Y395730D02*
Y490730D01*
Y395730D02*
X187790D01*
Y490730D01*
X819160Y349630D02*
Y397130D01*
X839460D01*
Y349630D02*
Y397130D01*
X819160Y349630D02*
X839460D01*
X776070Y553998D02*
Y574098D01*
X788570D01*
Y553998D02*
Y574098D01*
X776070Y553998D02*
X788570D01*
X774800Y480170D02*
Y500270D01*
X787300D01*
Y480170D02*
Y500270D01*
X774800Y480170D02*
X787300D01*
X343280Y697260D02*
X442380D01*
X343280D02*
Y746760D01*
X442380D01*
Y697260D02*
Y746760D01*
X186050Y654480D02*
Y753480D01*
X243550D01*
Y654480D02*
Y753480D01*
X186050Y654480D02*
X243550D01*
X278079Y670940D02*
X310079D01*
Y654940D02*
Y670940D01*
X278079Y654940D02*
X310079D01*
X278079D02*
Y670940D01*
X292042Y612040D02*
X312142D01*
Y599540D02*
Y612040D01*
X292042Y599540D02*
X312142D01*
X292042D02*
Y612040D01*
X836170Y598550D02*
X868170D01*
Y582550D02*
Y598550D01*
X836170Y582550D02*
X868170D01*
X836170D02*
Y598550D01*
X634240Y743330D02*
X666240D01*
Y727330D02*
Y743330D01*
X634240Y727330D02*
X666240D01*
X634240D02*
Y743330D01*
X944720Y310100D02*
X1178720D01*
Y147100D02*
Y310100D01*
X944720Y147100D02*
X1178720D01*
X944720D02*
Y310100D01*
X872490Y481330D02*
Y557530D01*
X821690D02*
X872490D01*
X821690Y481330D02*
Y557530D01*
Y481330D02*
X872490D01*
X902810Y328710D02*
Y491710D01*
Y328710D02*
X1136810D01*
Y491710D01*
X902810D02*
X1136810D01*
X449360Y250350D02*
X612360D01*
X449360Y16350D02*
Y250350D01*
Y16350D02*
X612360D01*
Y250350D01*
X854720Y349630D02*
X875020D01*
Y397130D01*
X854720D02*
X875020D01*
X854720Y349630D02*
Y397130D01*
X869720Y696420D02*
Y753920D01*
X745720D02*
X869720D01*
X745720Y696420D02*
Y753920D01*
Y696420D02*
X869720D01*
X566362Y726540D02*
Y739040D01*
Y726540D02*
X586462D01*
Y739040D01*
X566362D02*
X586462D01*
X493720Y559170D02*
Y573670D01*
X471720D02*
X493720D01*
X471720Y559170D02*
Y573670D01*
Y559170D02*
X493720D01*
X884820Y697520D02*
Y755020D01*
Y697520D02*
X983820D01*
Y755020D01*
X884820D02*
X983820D01*
X561850Y661290D02*
Y677290D01*
Y661290D02*
X593850D01*
Y677290D01*
X561850D02*
X593850D01*
X835400Y634870D02*
Y650370D01*
Y634870D02*
X866400D01*
Y650370D01*
X835400D02*
X866400D01*
X285150Y237460D02*
Y265460D01*
Y237460D02*
X337150D01*
Y265460D01*
X285150D02*
X337150D01*
D13*
X925150Y208000D02*
G03*
X925150Y208000I-42500J0D01*
G01*
X1278210Y187960D02*
G03*
X1278210Y187960I-42500J0D01*
G01*
X404920Y119380D02*
G03*
X404920Y119380I-92500J0D01*
G01*
X1121450Y563880D02*
G03*
X1121450Y563880I-61000J0D01*
G01*
M02*
