G04*
G04 #@! TF.GenerationSoftware,Altium Limited,Altium Designer,24.1.2 (44)*
G04*
G04 Layer_Color=16711935*
%FSLAX44Y44*%
%MOMM*%
G71*
G04*
G04 #@! TF.SameCoordinates,48E260C1-2FA9-4A74-8A97-B6B365FA718B*
G04*
G04*
G04 #@! TF.FilePolarity,Negative*
G04*
G01*
G75*
%ADD33C,0.1500*%
%ADD34C,1.4000*%
%ADD35R,1.4000X1.4000*%
%ADD36C,1.6500*%
%ADD37C,0.8000*%
%ADD38R,1.6500X1.6500*%
%ADD39C,1.3000*%
%ADD40R,1.3000X1.3000*%
%ADD41C,3.0500*%
%ADD42C,1.1500*%
%ADD43R,1.1500X1.1500*%
%ADD44C,1.1800*%
%ADD45C,2.3000*%
%ADD46R,2.3000X2.3000*%
%ADD47R,1.9650X1.9650*%
%ADD48C,1.9650*%
%ADD49R,1.3000X1.3000*%
%ADD50C,2.3250*%
%ADD51R,1.9500X1.9500*%
%ADD52C,1.9500*%
%ADD53R,1.9500X1.9500*%
%ADD54R,1.5500X1.5500*%
%ADD55C,1.5500*%
%ADD56R,1.2500X1.2500*%
%ADD57C,1.2500*%
%ADD58C,1.5500*%
%ADD59C,2.4500*%
%ADD60R,2.4500X2.4500*%
%ADD61R,1.4000X1.4000*%
%ADD62R,2.0850X2.0850*%
%ADD63C,2.0850*%
%ADD64C,1.8500*%
%ADD65R,1.8500X1.8500*%
%ADD66R,1.5500X1.5500*%
%ADD67R,2.0700X2.0700*%
%ADD68C,2.0700*%
%ADD69C,1.4200*%
D33*
X1253456Y31750D02*
D03*
X31750Y38100D02*
D03*
Y773430D02*
D03*
X1253456Y770890D02*
D03*
D34*
X71120Y345440D02*
D03*
Y370440D02*
D03*
X209550Y703980D02*
D03*
Y728980D02*
D03*
X795220Y730420D02*
D03*
X820220D02*
D03*
X845220D02*
D03*
X959320Y731520D02*
D03*
X934320D02*
D03*
D35*
X71120Y395440D02*
D03*
X209550Y678980D02*
D03*
D36*
X1172210Y632460D02*
D03*
Y657460D02*
D03*
Y682460D02*
D03*
Y707460D02*
D03*
Y732460D02*
D03*
X636270Y648970D02*
D03*
Y623570D02*
D03*
Y598170D02*
D03*
Y572770D02*
D03*
Y547370D02*
D03*
Y521970D02*
D03*
Y496570D02*
D03*
Y471170D02*
D03*
Y445770D02*
D03*
Y420370D02*
D03*
Y394970D02*
D03*
Y369570D02*
D03*
Y344170D02*
D03*
X712470Y674370D02*
D03*
Y648970D02*
D03*
Y623570D02*
D03*
Y598170D02*
D03*
Y572770D02*
D03*
Y547370D02*
D03*
Y521970D02*
D03*
Y496570D02*
D03*
Y471170D02*
D03*
Y445770D02*
D03*
Y420370D02*
D03*
Y394970D02*
D03*
Y369570D02*
D03*
Y344170D02*
D03*
X102870Y633660D02*
D03*
Y658660D02*
D03*
Y683660D02*
D03*
Y708660D02*
D03*
Y733660D02*
D03*
D37*
X1152210Y616460D02*
D03*
X122870Y749660D02*
D03*
D38*
X636270Y674370D02*
D03*
D39*
X882650Y190500D02*
D03*
X392830Y721360D02*
D03*
X417830D02*
D03*
X1235710Y205460D02*
D03*
X1098450Y563880D02*
D03*
D40*
X882650Y225500D02*
D03*
X1235710Y170460D02*
D03*
D41*
X733630Y223850D02*
D03*
Y42850D02*
D03*
X242240Y390320D02*
D03*
X423240D02*
D03*
X971220Y239600D02*
D03*
X1152220D02*
D03*
X1110310Y421210D02*
D03*
X929310D02*
D03*
X541860Y42850D02*
D03*
Y223850D02*
D03*
D42*
X485140Y425700D02*
D03*
X829310Y411730D02*
D03*
X864870D02*
D03*
D43*
X485140Y349000D02*
D03*
X829310Y335030D02*
D03*
X864870D02*
D03*
D44*
X548640Y567960D02*
D03*
Y519160D02*
D03*
D45*
X161290Y337650D02*
D03*
D46*
Y548810D02*
D03*
D47*
X358140Y441960D02*
D03*
D48*
X332740D02*
D03*
X307340D02*
D03*
D49*
X367830Y721360D02*
D03*
X1022450Y563880D02*
D03*
D50*
X151130Y215030D02*
D03*
Y164030D02*
D03*
Y113030D02*
D03*
Y62030D02*
D03*
D51*
X1071880Y716280D02*
D03*
X1150620Y80010D02*
D03*
X1009650D02*
D03*
D52*
X1021080Y716280D02*
D03*
X1203960Y425450D02*
D03*
X77470Y480060D02*
D03*
X1202690Y563880D02*
D03*
X1201420Y80010D02*
D03*
X1060450D02*
D03*
X49530Y113030D02*
D03*
D53*
X1203960Y374650D02*
D03*
X77470Y530860D02*
D03*
X1202690Y513080D02*
D03*
X49530Y163830D02*
D03*
D54*
X834390Y494030D02*
D03*
X312420Y81880D02*
D03*
D55*
X834390Y519430D02*
D03*
Y544830D02*
D03*
X859790Y494030D02*
D03*
Y519430D02*
D03*
Y544830D02*
D03*
X312420Y156880D02*
D03*
X355550Y251460D02*
D03*
D56*
X1239520Y281940D02*
D03*
D57*
X1254520D02*
D03*
D58*
X891540Y92310D02*
D03*
Y42310D02*
D03*
D59*
X679450Y187850D02*
D03*
Y133350D02*
D03*
D60*
Y78850D02*
D03*
D61*
X770220Y730420D02*
D03*
X909320Y731520D02*
D03*
D62*
X491490Y158750D02*
D03*
D63*
Y133350D02*
D03*
Y107950D02*
D03*
D64*
X1090930Y191770D02*
D03*
X1065530D02*
D03*
D65*
X1040130D02*
D03*
D66*
X266750Y251460D02*
D03*
D67*
X994410Y365760D02*
D03*
D68*
X1019810D02*
D03*
X1045210D02*
D03*
D69*
X806450Y622300D02*
D03*
X731520Y283210D02*
D03*
X605790Y313690D02*
D03*
X604520Y552450D02*
D03*
X379730Y529590D02*
D03*
X553720Y640080D02*
D03*
X400050Y571500D02*
D03*
X922020Y527050D02*
D03*
X745490Y447040D02*
D03*
X1182370Y598170D02*
D03*
X885190Y680720D02*
D03*
X894080Y579120D02*
D03*
X768350Y444500D02*
D03*
X807720Y502920D02*
D03*
X878840Y642620D02*
D03*
X810260Y570230D02*
D03*
X798830Y520700D02*
D03*
X662585Y709245D02*
D03*
X693420Y699770D02*
D03*
X604520Y510540D02*
D03*
X590550Y604520D02*
D03*
X397510Y665480D02*
D03*
X434340Y623570D02*
D03*
X257810Y662940D02*
D03*
M02*
