G04*
G04 #@! TF.GenerationSoftware,Altium Limited,Altium Designer,24.1.2 (44)*
G04*
G04 Layer_Color=16711935*
%FSLAX44Y44*%
%MOMM*%
G71*
G04*
G04 #@! TF.SameCoordinates,48E260C1-2FA9-4A74-8A97-B6B365FA718B*
G04*
G04*
G04 #@! TF.FilePolarity,Positive*
G04*
G01*
G75*
%ADD11C,0.2000*%
%ADD14C,0.1270*%
%ADD15C,0.2540*%
%ADD16C,0.1000*%
D11*
X1138210Y607960D02*
Y756960D01*
X1195710D01*
Y607960D02*
Y756960D01*
X1138210Y607960D02*
X1195710D01*
X116630Y22530D02*
X186130D01*
Y254530D01*
X116630D02*
X186130D01*
X116630Y22530D02*
Y254530D01*
X79370Y758160D02*
X136870D01*
X79370Y609160D02*
Y758160D01*
Y609160D02*
X136870D01*
Y758160D01*
X529690Y676810D02*
Y727810D01*
X478690D02*
X529690D01*
X478690Y676810D02*
Y727810D01*
Y676810D02*
X529690D01*
D14*
X538516Y600310D02*
G03*
X525340Y587586I-226J-12950D01*
G01*
Y499534D02*
G03*
X538516Y486810I12950J226D01*
G01*
X558764D02*
G03*
X571940Y499534I226J12950D01*
G01*
Y587586D02*
G03*
X558764Y600310I-12950J-226D01*
G01*
X525340Y499510D02*
Y587610D01*
X538540Y486810D02*
X558740D01*
X571940Y499510D02*
Y587610D01*
X538540Y600310D02*
X558740D01*
D15*
X0Y0D02*
X1287780D01*
Y803910D01*
X0D02*
X1287780D01*
X0Y0D02*
Y803910D01*
D16*
X652370Y676770D02*
G03*
X652370Y676770I-5000J0D01*
G01*
X1267020Y281940D02*
G03*
X1267020Y281940I-20000J0D01*
G01*
X944040Y67310D02*
G03*
X944040Y67310I-52500J0D01*
G01*
X638370Y332770D02*
Y685770D01*
X710370Y332770D02*
Y685770D01*
X638370D02*
X710370D01*
X638370Y332770D02*
X710370D01*
X282240Y412660D02*
X383240D01*
X282240D02*
Y456660D01*
X383240D01*
Y412660D02*
Y456660D01*
X370540Y412660D02*
X383240Y425360D01*
X1098568Y745412D02*
X1100350Y743910D01*
X1097281Y745412D02*
X1098568D01*
X1100352Y743912D02*
X1102981D01*
X1102979D02*
X1102980Y743913D01*
Y751050D01*
X995681Y675781D02*
Y756781D01*
X1097281Y675781D02*
Y756781D01*
X995681D02*
X1097281D01*
X995681Y675781D02*
X1097281D01*
X1100352Y751050D02*
X1102980D01*
X1097281Y749551D02*
X1098568D01*
X1100350Y751050D01*
X912680Y602880D02*
X951680D01*
Y651880D01*
X912680D02*
X951680D01*
X912680Y602880D02*
Y651880D01*
Y615580D02*
X925380Y602880D01*
X1231590Y346180D02*
X1233092Y347962D01*
Y349249D01*
X1231592Y343549D02*
Y346178D01*
Y343551D02*
X1231593Y343550D01*
X1238730D01*
X1163461Y450849D02*
X1244461D01*
X1163461Y349249D02*
X1244461D01*
Y450849D01*
X1163461Y349249D02*
Y450849D01*
X1238730Y343550D02*
Y346178D01*
X1237231Y347962D02*
Y349249D01*
Y347962D02*
X1238730Y346180D01*
X48338Y557547D02*
X49840Y559330D01*
X48338Y556261D02*
Y557547D01*
X49838Y559332D02*
Y561961D01*
X49837Y561960D02*
X49838Y561959D01*
X42700Y561960D02*
X49837D01*
X36969Y454661D02*
X117969D01*
X36969Y556261D02*
X117969D01*
X36969Y454661D02*
Y556261D01*
X117969Y454661D02*
Y556261D01*
X42700Y559332D02*
Y561960D01*
X44199Y556261D02*
Y557547D01*
X42700Y559330D02*
X44199Y557547D01*
X1230320Y484610D02*
X1231822Y486393D01*
Y487679D01*
X1230322Y481979D02*
Y484608D01*
Y481981D02*
X1230323Y481980D01*
X1237460D01*
X1162191Y589279D02*
X1243191D01*
X1162191Y487679D02*
X1243191D01*
Y589279D01*
X1162191Y487679D02*
Y589279D01*
X1237460Y481980D02*
Y484608D01*
X1235961Y486393D02*
Y487679D01*
Y486393D02*
X1237460Y484610D01*
X1122150Y52380D02*
X1123932Y50878D01*
X1125219D01*
X1119519Y52378D02*
X1122148D01*
X1119520Y52377D02*
X1119521Y52378D01*
X1119520Y45240D02*
Y52377D01*
X1226819Y39509D02*
Y120509D01*
X1125219Y39509D02*
Y120509D01*
Y39509D02*
X1226819D01*
X1125219Y120509D02*
X1226819D01*
X1119520Y45240D02*
X1122148D01*
X1123932Y46739D02*
X1125219D01*
X1122150Y45240D02*
X1123932Y46739D01*
X981180Y52380D02*
X982962Y50878D01*
X984249D01*
X978549Y52378D02*
X981178D01*
X978550Y52377D02*
X978551Y52378D01*
X978550Y45240D02*
Y52377D01*
X1085849Y39509D02*
Y120509D01*
X984249Y39509D02*
Y120509D01*
Y39509D02*
X1085849D01*
X984249Y120509D02*
X1085849D01*
X978550Y45240D02*
X981178D01*
X982962Y46739D02*
X984249D01*
X981180Y45240D02*
X982962Y46739D01*
X678950Y51850D02*
Y214850D01*
X656450D02*
X709450D01*
X656450Y51850D02*
X709450D01*
X656450D02*
Y214850D01*
X709450Y51850D02*
Y214850D01*
X366790Y585060D02*
Y629060D01*
X336790Y585060D02*
X366790D01*
X336790D02*
Y629060D01*
X366790D01*
X360290D02*
X366790Y622560D01*
X394980Y583320D02*
Y600320D01*
X427980Y583320D02*
Y600320D01*
X394980D02*
X427980D01*
X394980Y583320D02*
X427980D01*
X800090Y634120D02*
Y651120D01*
X767090Y634120D02*
Y651120D01*
Y634120D02*
X800090D01*
X767090Y651120D02*
X800090D01*
X523490Y80650D02*
Y186050D01*
X476490Y80650D02*
X523490D01*
X476490D02*
Y186050D01*
X523490D01*
X510790D02*
X523490Y173350D01*
X1013530Y174270D02*
X1117530D01*
X1013530D02*
Y220270D01*
X1013530D02*
X1117530D01*
Y174270D02*
Y220270D01*
X1013530Y207270D02*
X1117530D01*
X14760Y192300D02*
X16259Y190518D01*
Y189231D02*
Y190518D01*
X14760Y192302D02*
Y194930D01*
X90029Y87631D02*
Y189231D01*
X9029Y87631D02*
Y189231D01*
X90029D01*
X9029Y87631D02*
X90029D01*
X14760Y194930D02*
X21897D01*
X21898Y194929D01*
Y192302D02*
Y194931D01*
X20398Y189231D02*
Y190518D01*
X21900Y192300D01*
X967110Y397710D02*
X1072510D01*
Y350810D02*
Y397710D01*
X967110Y350810D02*
X1072510D01*
X967110D02*
Y397710D01*
Y385010D02*
X979810Y397710D01*
M02*
