G04*
G04 #@! TF.GenerationSoftware,Altium Limited,Altium Designer,24.1.2 (44)*
G04*
G04 Layer_Color=2752767*
%FSLAX44Y44*%
%MOMM*%
G71*
G04*
G04 #@! TF.SameCoordinates,48E260C1-2FA9-4A74-8A97-B6B365FA718B*
G04*
G04*
G04 #@! TF.FilePolarity,Positive*
G04*
G01*
G75*
%ADD14C,0.1270*%
%ADD96C,0.1693*%
%ADD97C,0.1016*%
D14*
X1253456Y44446D02*
Y31750D01*
X1259804D01*
X1261920Y33866D01*
Y42330D01*
X1259804Y44446D01*
X1253456D01*
X31750Y50796D02*
Y38100D01*
X38098D01*
X40214Y40216D01*
Y48680D01*
X38098Y50796D01*
X31750D01*
Y786126D02*
Y773430D01*
X38098D01*
X40214Y775546D01*
Y784010D01*
X38098Y786126D01*
X31750D01*
X1253456Y783586D02*
Y770890D01*
X1259804D01*
X1261920Y773006D01*
Y781470D01*
X1259804Y783586D01*
X1253456D01*
X1167130Y627380D02*
Y637540D01*
X1177290D01*
Y627380D01*
X1167130D01*
Y652380D02*
Y662540D01*
X1177290D01*
Y652380D01*
X1167130D01*
Y677380D02*
Y687540D01*
X1177290D01*
Y677380D01*
X1167130D01*
Y702380D02*
Y712540D01*
X1177290D01*
Y702380D01*
X1167130D01*
Y727380D02*
Y737540D01*
X1177290D01*
Y727380D01*
X1167130D01*
X1152210Y616460D02*
Y624924D01*
X1156442Y629156D01*
X1160674Y624924D01*
Y616460D01*
Y622808D01*
X1152210D01*
X882650Y185420D02*
X885190Y187960D01*
X887730D01*
X885190Y190500D01*
X887730Y193040D01*
X885190D01*
X882650Y195580D01*
X880110Y193040D01*
X877570D01*
X880110Y190500D01*
X877570Y187960D01*
X880110D01*
X882650Y185420D01*
Y220420D02*
X885190Y222960D01*
X887730D01*
X885190Y225500D01*
X887730Y228040D01*
X885190D01*
X882650Y230580D01*
X880110Y228040D01*
X877570D01*
X880110Y225500D01*
X877570Y222960D01*
X880110D01*
X882650Y220420D01*
X728550Y218770D02*
X731090D01*
X733630Y221310D01*
X736170Y218770D01*
X738710D01*
Y221310D01*
X736170Y223850D01*
X738710Y226390D01*
Y228930D01*
X736170D01*
X733630Y226390D01*
X731090Y228930D01*
X728550D01*
Y226390D01*
X731090Y223850D01*
X728550Y221310D01*
Y218770D01*
X730582Y220802D02*
X732106D01*
X733630Y222326D01*
X735154Y220802D01*
X736678D01*
Y222326D01*
X735154Y223850D01*
X736678Y225374D01*
Y226898D01*
X735154D01*
X733630Y225374D01*
X732106Y226898D01*
X730582D01*
Y225374D01*
X732106Y223850D01*
X730582Y222326D01*
Y220802D01*
X728550Y37770D02*
X731090D01*
X733630Y40310D01*
X736170Y37770D01*
X738710D01*
Y40310D01*
X736170Y42850D01*
X738710Y45390D01*
Y47930D01*
X736170D01*
X733630Y45390D01*
X731090Y47930D01*
X728550D01*
Y45390D01*
X731090Y42850D01*
X728550Y40310D01*
Y37770D01*
X730582Y39802D02*
X732106D01*
X733630Y41326D01*
X735154Y39802D01*
X736678D01*
Y41326D01*
X735154Y42850D01*
X736678Y44374D01*
Y45898D01*
X735154D01*
X733630Y44374D01*
X732106Y45898D01*
X730582D01*
Y44374D01*
X732106Y42850D01*
X730582Y41326D01*
Y39802D01*
X480060Y420620D02*
X482600Y425700D01*
X480060Y430780D01*
X485140Y428240D01*
X490220Y430780D01*
X487680Y425700D01*
X490220Y420620D01*
X485140Y423160D01*
X480060Y420620D01*
X482092Y422652D02*
X483616Y425700D01*
X482092Y428748D01*
X485140Y427224D01*
X488188Y428748D01*
X486664Y425700D01*
X488188Y422652D01*
X485140Y424176D01*
X482092Y422652D01*
X480060Y343920D02*
X482600Y349000D01*
X480060Y354080D01*
X485140Y351540D01*
X490220Y354080D01*
X487680Y349000D01*
X490220Y343920D01*
X485140Y346460D01*
X480060Y343920D01*
X482092Y345952D02*
X483616Y349000D01*
X482092Y352048D01*
X485140Y350524D01*
X488188Y352048D01*
X486664Y349000D01*
X488188Y345952D01*
X485140Y347476D01*
X482092Y345952D01*
X543560Y562880D02*
X546100Y567960D01*
X543560Y573040D01*
X548640Y570500D01*
X553720Y573040D01*
X551180Y567960D01*
X553720Y562880D01*
X548640Y565420D01*
X543560Y562880D01*
Y514080D02*
X546100Y519160D01*
X543560Y524240D01*
X548640Y521700D01*
X553720Y524240D01*
X551180Y519160D01*
X553720Y514080D01*
X548640Y516620D01*
X543560Y514080D01*
X237160Y385240D02*
X239700D01*
X242240Y387780D01*
X244780Y385240D01*
X247320D01*
Y387780D01*
X244780Y390320D01*
X247320Y392860D01*
Y395400D01*
X244780D01*
X242240Y392860D01*
X239700Y395400D01*
X237160D01*
Y392860D01*
X239700Y390320D01*
X237160Y387780D01*
Y385240D01*
X239192Y387272D02*
X240716D01*
X242240Y388796D01*
X243764Y387272D01*
X245288D01*
Y388796D01*
X243764Y390320D01*
X245288Y391844D01*
Y393368D01*
X243764D01*
X242240Y391844D01*
X240716Y393368D01*
X239192D01*
Y391844D01*
X240716Y390320D01*
X239192Y388796D01*
Y387272D01*
X418160Y385240D02*
X420700D01*
X423240Y387780D01*
X425780Y385240D01*
X428320D01*
Y387780D01*
X425780Y390320D01*
X428320Y392860D01*
Y395400D01*
X425780D01*
X423240Y392860D01*
X420700Y395400D01*
X418160D01*
Y392860D01*
X420700Y390320D01*
X418160Y387780D01*
Y385240D01*
X420192Y387272D02*
X421716D01*
X423240Y388796D01*
X424764Y387272D01*
X426288D01*
Y388796D01*
X424764Y390320D01*
X426288Y391844D01*
Y393368D01*
X424764D01*
X423240Y391844D01*
X421716Y393368D01*
X420192D01*
Y391844D01*
X421716Y390320D01*
X420192Y388796D01*
Y387272D01*
X161290Y332570D02*
X156210Y342730D01*
X166370D01*
X161290Y332570D01*
Y334602D02*
X158242Y340698D01*
X164338D01*
X161290Y334602D01*
Y543730D02*
X156210Y553890D01*
X166370D01*
X161290Y543730D01*
Y545762D02*
X158242Y551858D01*
X164338D01*
X161290Y545762D01*
X824230Y329950D02*
X826770Y335030D01*
X824230Y340110D01*
X829310Y337570D01*
X834390Y340110D01*
X831850Y335030D01*
X834390Y329950D01*
X829310Y332490D01*
X824230Y329950D01*
X826262Y331982D02*
X827786Y335030D01*
X826262Y338078D01*
X829310Y336554D01*
X832358Y338078D01*
X830834Y335030D01*
X832358Y331982D01*
X829310Y333506D01*
X826262Y331982D01*
X824230Y406650D02*
X826770Y411730D01*
X824230Y416810D01*
X829310Y414270D01*
X834390Y416810D01*
X831850Y411730D01*
X834390Y406650D01*
X829310Y409190D01*
X824230Y406650D01*
X826262Y408682D02*
X827786Y411730D01*
X826262Y414778D01*
X829310Y413254D01*
X832358Y414778D01*
X830834Y411730D01*
X832358Y408682D01*
X829310Y410206D01*
X826262Y408682D01*
X358140Y436880D02*
X360680Y439420D01*
X363220D01*
X360680Y441960D01*
X363220Y444500D01*
X360680D01*
X358140Y447040D01*
X355600Y444500D01*
X353060D01*
X355600Y441960D01*
X353060Y439420D01*
X355600D01*
X358140Y436880D01*
Y438912D02*
X359664Y440436D01*
X361188D01*
X359664Y441960D01*
X361188Y443484D01*
X359664D01*
X358140Y445008D01*
X356616Y443484D01*
X355092D01*
X356616Y441960D01*
X355092Y440436D01*
X356616D01*
X358140Y438912D01*
X332740Y436880D02*
X335280Y439420D01*
X337820D01*
X335280Y441960D01*
X337820Y444500D01*
X335280D01*
X332740Y447040D01*
X330200Y444500D01*
X327660D01*
X330200Y441960D01*
X327660Y439420D01*
X330200D01*
X332740Y436880D01*
Y438912D02*
X334264Y440436D01*
X335788D01*
X334264Y441960D01*
X335788Y443484D01*
X334264D01*
X332740Y445008D01*
X331216Y443484D01*
X329692D01*
X331216Y441960D01*
X329692Y440436D01*
X331216D01*
X332740Y438912D01*
X307340Y436880D02*
X309880Y439420D01*
X312420D01*
X309880Y441960D01*
X312420Y444500D01*
X309880D01*
X307340Y447040D01*
X304800Y444500D01*
X302260D01*
X304800Y441960D01*
X302260Y439420D01*
X304800D01*
X307340Y436880D01*
Y438912D02*
X308864Y440436D01*
X310388D01*
X308864Y441960D01*
X310388Y443484D01*
X308864D01*
X307340Y445008D01*
X305816Y443484D01*
X304292D01*
X305816Y441960D01*
X304292Y440436D01*
X305816D01*
X307340Y438912D01*
X367830Y716280D02*
X370370Y718820D01*
X372910D01*
X370370Y721360D01*
X372910Y723900D01*
X370370D01*
X367830Y726440D01*
X365290Y723900D01*
X362750D01*
X365290Y721360D01*
X362750Y718820D01*
X365290D01*
X367830Y716280D01*
X392830D02*
X395370Y718820D01*
X397910D01*
X395370Y721360D01*
X397910Y723900D01*
X395370D01*
X392830Y726440D01*
X390290Y723900D01*
X387750D01*
X390290Y721360D01*
X387750Y718820D01*
X390290D01*
X392830Y716280D01*
X417830D02*
X420370Y718820D01*
X422910D01*
X420370Y721360D01*
X422910Y723900D01*
X420370D01*
X417830Y726440D01*
X415290Y723900D01*
X412750D01*
X415290Y721360D01*
X412750Y718820D01*
X415290D01*
X417830Y716280D01*
X146050Y215030D02*
X151130Y220110D01*
X156210Y215030D01*
X151130Y209950D01*
X146050Y215030D01*
Y164030D02*
X151130Y169110D01*
X156210Y164030D01*
X151130Y158950D01*
X146050Y164030D01*
Y113030D02*
X151130Y118110D01*
X156210Y113030D01*
X151130Y107950D01*
X146050Y113030D01*
Y62030D02*
X151130Y67110D01*
X156210Y62030D01*
X151130Y56950D01*
X146050Y62030D01*
X1071880Y711200D02*
X1066800Y721360D01*
X1076960D01*
X1071880Y711200D01*
X1021080D02*
X1016000Y721360D01*
X1026160D01*
X1021080Y711200D01*
X1203960Y369570D02*
X1198880Y379730D01*
X1209040D01*
X1203960Y369570D01*
Y420370D02*
X1198880Y430530D01*
X1209040D01*
X1203960Y420370D01*
X77470Y525780D02*
X72390Y535940D01*
X82550D01*
X77470Y525780D01*
Y474980D02*
X72390Y485140D01*
X82550D01*
X77470Y474980D01*
X966140Y234520D02*
X968680D01*
X971220Y237060D01*
X973760Y234520D01*
X976300D01*
Y237060D01*
X973760Y239600D01*
X976300Y242140D01*
Y244680D01*
X973760D01*
X971220Y242140D01*
X968680Y244680D01*
X966140D01*
Y242140D01*
X968680Y239600D01*
X966140Y237060D01*
Y234520D01*
X968172Y236552D02*
X969696D01*
X971220Y238076D01*
X972744Y236552D01*
X974268D01*
Y238076D01*
X972744Y239600D01*
X974268Y241124D01*
Y242648D01*
X972744D01*
X971220Y241124D01*
X969696Y242648D01*
X968172D01*
Y241124D01*
X969696Y239600D01*
X968172Y238076D01*
Y236552D01*
X1147140Y234520D02*
X1149680D01*
X1152220Y237060D01*
X1154760Y234520D01*
X1157300D01*
Y237060D01*
X1154760Y239600D01*
X1157300Y242140D01*
Y244680D01*
X1154760D01*
X1152220Y242140D01*
X1149680Y244680D01*
X1147140D01*
Y242140D01*
X1149680Y239600D01*
X1147140Y237060D01*
Y234520D01*
X1149172Y236552D02*
X1150696D01*
X1152220Y238076D01*
X1153744Y236552D01*
X1155268D01*
Y238076D01*
X1153744Y239600D01*
X1155268Y241124D01*
Y242648D01*
X1153744D01*
X1152220Y241124D01*
X1150696Y242648D01*
X1149172D01*
Y241124D01*
X1150696Y239600D01*
X1149172Y238076D01*
Y236552D01*
X122870Y749660D02*
Y758124D01*
X127102Y762356D01*
X131334Y758124D01*
Y749660D01*
Y756008D01*
X122870D01*
X97790Y628580D02*
Y638740D01*
X107950D01*
Y628580D01*
X97790D01*
Y653580D02*
Y663740D01*
X107950D01*
Y653580D01*
X97790D01*
Y678580D02*
Y688740D01*
X107950D01*
Y678580D01*
X97790D01*
Y703580D02*
Y713740D01*
X107950D01*
Y703580D01*
X97790D01*
Y728580D02*
Y738740D01*
X107950D01*
Y728580D01*
X97790D01*
X1202690Y508000D02*
X1197610Y518160D01*
X1207770D01*
X1202690Y508000D01*
Y558800D02*
X1197610Y568960D01*
X1207770D01*
X1202690Y558800D01*
X829310Y488950D02*
Y499110D01*
X839470D01*
Y488950D01*
X829310D01*
Y514350D02*
Y524510D01*
X839470D01*
Y514350D01*
X829310D01*
Y539750D02*
Y549910D01*
X839470D01*
Y539750D01*
X829310D01*
X854710Y488950D02*
Y499110D01*
X864870D01*
Y488950D01*
X854710D01*
Y514350D02*
Y524510D01*
X864870D01*
Y514350D01*
X854710D01*
Y539750D02*
Y549910D01*
X864870D01*
Y539750D01*
X854710D01*
X1235710Y165380D02*
X1238250Y167920D01*
X1240790D01*
X1238250Y170460D01*
X1240790Y173000D01*
X1238250D01*
X1235710Y175540D01*
X1233170Y173000D01*
X1230630D01*
X1233170Y170460D01*
X1230630Y167920D01*
X1233170D01*
X1235710Y165380D01*
Y200380D02*
X1238250Y202920D01*
X1240790D01*
X1238250Y205460D01*
X1240790Y208000D01*
X1238250D01*
X1235710Y210540D01*
X1233170Y208000D01*
X1230630D01*
X1233170Y205460D01*
X1230630Y202920D01*
X1233170D01*
X1235710Y200380D01*
X1150620Y74930D02*
X1145540Y85090D01*
X1155700D01*
X1150620Y74930D01*
X1201420D02*
X1196340Y85090D01*
X1206500D01*
X1201420Y74930D01*
X1009650D02*
X1004570Y85090D01*
X1014730D01*
X1009650Y74930D01*
X1060450D02*
X1055370Y85090D01*
X1065530D01*
X1060450Y74930D01*
X674370Y182770D02*
X676910D01*
X679450Y185310D01*
X681990Y182770D01*
X684530D01*
Y185310D01*
X681990Y187850D01*
X684530Y190390D01*
Y192930D01*
X681990D01*
X679450Y190390D01*
X676910Y192930D01*
X674370D01*
Y190390D01*
X676910Y187850D01*
X674370Y185310D01*
Y182770D01*
Y128270D02*
X676910D01*
X679450Y130810D01*
X681990Y128270D01*
X684530D01*
Y130810D01*
X681990Y133350D01*
X684530Y135890D01*
Y138430D01*
X681990D01*
X679450Y135890D01*
X676910Y138430D01*
X674370D01*
Y135890D01*
X676910Y133350D01*
X674370Y130810D01*
Y128270D01*
Y73770D02*
X676910D01*
X679450Y76310D01*
X681990Y73770D01*
X684530D01*
Y76310D01*
X681990Y78850D01*
X684530Y81390D01*
Y83930D01*
X681990D01*
X679450Y81390D01*
X676910Y83930D01*
X674370D01*
Y81390D01*
X676910Y78850D01*
X674370Y76310D01*
Y73770D01*
X307340Y76800D02*
Y86960D01*
X317500D01*
Y76800D01*
X307340D01*
Y151800D02*
Y161960D01*
X317500D01*
Y151800D01*
X307340D01*
X1105230Y416130D02*
X1107770D01*
X1110310Y418670D01*
X1112850Y416130D01*
X1115390D01*
Y418670D01*
X1112850Y421210D01*
X1115390Y423750D01*
Y426290D01*
X1112850D01*
X1110310Y423750D01*
X1107770Y426290D01*
X1105230D01*
Y423750D01*
X1107770Y421210D01*
X1105230Y418670D01*
Y416130D01*
X1107262Y418162D02*
X1108786D01*
X1110310Y419686D01*
X1111834Y418162D01*
X1113358D01*
Y419686D01*
X1111834Y421210D01*
X1113358Y422734D01*
Y424258D01*
X1111834D01*
X1110310Y422734D01*
X1108786Y424258D01*
X1107262D01*
Y422734D01*
X1108786Y421210D01*
X1107262Y419686D01*
Y418162D01*
X924230Y416130D02*
X926770D01*
X929310Y418670D01*
X931850Y416130D01*
X934390D01*
Y418670D01*
X931850Y421210D01*
X934390Y423750D01*
Y426290D01*
X931850D01*
X929310Y423750D01*
X926770Y426290D01*
X924230D01*
Y423750D01*
X926770Y421210D01*
X924230Y418670D01*
Y416130D01*
X926262Y418162D02*
X927786D01*
X929310Y419686D01*
X930834Y418162D01*
X932358D01*
Y419686D01*
X930834Y421210D01*
X932358Y422734D01*
Y424258D01*
X930834D01*
X929310Y422734D01*
X927786Y424258D01*
X926262D01*
Y422734D01*
X927786Y421210D01*
X926262Y419686D01*
Y418162D01*
X536780Y37770D02*
X539320D01*
X541860Y40310D01*
X544400Y37770D01*
X546940D01*
Y40310D01*
X544400Y42850D01*
X546940Y45390D01*
Y47930D01*
X544400D01*
X541860Y45390D01*
X539320Y47930D01*
X536780D01*
Y45390D01*
X539320Y42850D01*
X536780Y40310D01*
Y37770D01*
X538812Y39802D02*
X540336D01*
X541860Y41326D01*
X543384Y39802D01*
X544908D01*
Y41326D01*
X543384Y42850D01*
X544908Y44374D01*
Y45898D01*
X543384D01*
X541860Y44374D01*
X540336Y45898D01*
X538812D01*
Y44374D01*
X540336Y42850D01*
X538812Y41326D01*
Y39802D01*
X536780Y218770D02*
X539320D01*
X541860Y221310D01*
X544400Y218770D01*
X546940D01*
Y221310D01*
X544400Y223850D01*
X546940Y226390D01*
Y228930D01*
X544400D01*
X541860Y226390D01*
X539320Y228930D01*
X536780D01*
Y226390D01*
X539320Y223850D01*
X536780Y221310D01*
Y218770D01*
X538812Y220802D02*
X540336D01*
X541860Y222326D01*
X543384Y220802D01*
X544908D01*
Y222326D01*
X543384Y223850D01*
X544908Y225374D01*
Y226898D01*
X543384D01*
X541860Y225374D01*
X540336Y226898D01*
X538812D01*
Y225374D01*
X540336Y223850D01*
X538812Y222326D01*
Y220802D01*
X859790Y406650D02*
X862330Y411730D01*
X859790Y416810D01*
X864870Y414270D01*
X869950Y416810D01*
X867410Y411730D01*
X869950Y406650D01*
X864870Y409190D01*
X859790Y406650D01*
X861822Y408682D02*
X863346Y411730D01*
X861822Y414778D01*
X864870Y413254D01*
X867918Y414778D01*
X866394Y411730D01*
X867918Y408682D01*
X864870Y410206D01*
X861822Y408682D01*
X859790Y329950D02*
X862330Y335030D01*
X859790Y340110D01*
X864870Y337570D01*
X869950Y340110D01*
X867410Y335030D01*
X869950Y329950D01*
X864870Y332490D01*
X859790Y329950D01*
X861822Y331982D02*
X863346Y335030D01*
X861822Y338078D01*
X864870Y336554D01*
X867918Y338078D01*
X866394Y335030D01*
X867918Y331982D01*
X864870Y333506D01*
X861822Y331982D01*
X1022450Y558800D02*
X1024990Y561340D01*
X1027530D01*
X1024990Y563880D01*
X1027530Y566420D01*
X1024990D01*
X1022450Y568960D01*
X1019910Y566420D01*
X1017370D01*
X1019910Y563880D01*
X1017370Y561340D01*
X1019910D01*
X1022450Y558800D01*
X1098450D02*
X1100990Y561340D01*
X1103530D01*
X1100990Y563880D01*
X1103530Y566420D01*
X1100990D01*
X1098450Y568960D01*
X1095910Y566420D01*
X1093370D01*
X1095910Y563880D01*
X1093370Y561340D01*
X1095910D01*
X1098450Y558800D01*
X488950Y156210D02*
Y153670D01*
X494030D01*
Y156210D01*
X496570D01*
Y161290D01*
X494030D01*
Y163830D01*
X488950D01*
Y161290D01*
X486410D01*
Y156210D01*
X488950D01*
Y130810D02*
Y128270D01*
X494030D01*
Y130810D01*
X496570D01*
Y135890D01*
X494030D01*
Y138430D01*
X488950D01*
Y135890D01*
X486410D01*
Y130810D01*
X488950D01*
Y105410D02*
Y102870D01*
X494030D01*
Y105410D01*
X496570D01*
Y110490D01*
X494030D01*
Y113030D01*
X488950D01*
Y110490D01*
X486410D01*
Y105410D01*
X488950D01*
X1085850Y186690D02*
Y196850D01*
X1096010D01*
Y186690D01*
X1085850D01*
X1087882Y188722D02*
Y194818D01*
X1093978D01*
Y188722D01*
X1087882D01*
X1060450Y186690D02*
Y196850D01*
X1070610D01*
Y186690D01*
X1060450D01*
X1062482Y188722D02*
Y194818D01*
X1068578D01*
Y188722D01*
X1062482D01*
X1035050Y186690D02*
Y196850D01*
X1045210D01*
Y186690D01*
X1035050D01*
X1037082Y188722D02*
Y194818D01*
X1043178D01*
Y188722D01*
X1037082D01*
X49530Y107950D02*
X44450Y118110D01*
X54610D01*
X49530Y107950D01*
Y158750D02*
X44450Y168910D01*
X54610D01*
X49530Y158750D01*
X350470Y246380D02*
Y256540D01*
X360630D01*
Y246380D01*
X350470D01*
X261670D02*
Y256540D01*
X271830D01*
Y246380D01*
X261670D01*
X991870Y363220D02*
Y360680D01*
X996950D01*
Y363220D01*
X999490D01*
Y368300D01*
X996950D01*
Y370840D01*
X991870D01*
Y368300D01*
X989330D01*
Y363220D01*
X991870D01*
X992886Y364236D02*
Y362712D01*
X995934D01*
Y364236D01*
X997458D01*
Y367284D01*
X995934D01*
Y368808D01*
X992886D01*
Y367284D01*
X991362D01*
Y364236D01*
X992886D01*
X1017270Y363220D02*
Y360680D01*
X1022350D01*
Y363220D01*
X1024890D01*
Y368300D01*
X1022350D01*
Y370840D01*
X1017270D01*
Y368300D01*
X1014730D01*
Y363220D01*
X1017270D01*
X1018286Y364236D02*
Y362712D01*
X1021334D01*
Y364236D01*
X1022858D01*
Y367284D01*
X1021334D01*
Y368808D01*
X1018286D01*
Y367284D01*
X1016762D01*
Y364236D01*
X1018286D01*
X1042670Y363220D02*
Y360680D01*
X1047750D01*
Y363220D01*
X1050290D01*
Y368300D01*
X1047750D01*
Y370840D01*
X1042670D01*
Y368300D01*
X1040130D01*
Y363220D01*
X1042670D01*
X1043686Y364236D02*
Y362712D01*
X1046734D01*
Y364236D01*
X1048258D01*
Y367284D01*
X1046734D01*
Y368808D01*
X1043686D01*
Y367284D01*
X1042162D01*
Y364236D01*
X1043686D01*
X806450Y634996D02*
Y622300D01*
X812798D01*
X814914Y624416D01*
Y626532D01*
X812798Y628648D01*
X806450D01*
X812798D01*
X814914Y630764D01*
Y632880D01*
X812798Y634996D01*
X806450D01*
X731520Y295906D02*
Y283210D01*
X737868D01*
X739984Y285326D01*
Y287442D01*
X737868Y289558D01*
X731520D01*
X737868D01*
X739984Y291674D01*
Y293790D01*
X737868Y295906D01*
X731520D01*
X605790Y326386D02*
Y313690D01*
X612138D01*
X614254Y315806D01*
Y317922D01*
X612138Y320038D01*
X605790D01*
X612138D01*
X614254Y322154D01*
Y324270D01*
X612138Y326386D01*
X605790D01*
X604520Y565146D02*
Y552450D01*
X610868D01*
X612984Y554566D01*
Y556682D01*
X610868Y558798D01*
X604520D01*
X610868D01*
X612984Y560914D01*
Y563030D01*
X610868Y565146D01*
X604520D01*
X379730Y542286D02*
Y529590D01*
X386078D01*
X388194Y531706D01*
Y533822D01*
X386078Y535938D01*
X379730D01*
X386078D01*
X388194Y538054D01*
Y540170D01*
X386078Y542286D01*
X379730D01*
X553720Y652776D02*
Y640080D01*
X560068D01*
X562184Y642196D01*
Y644312D01*
X560068Y646428D01*
X553720D01*
X560068D01*
X562184Y648544D01*
Y650660D01*
X560068Y652776D01*
X553720D01*
X400050Y584196D02*
Y571500D01*
X406398D01*
X408514Y573616D01*
Y575732D01*
X406398Y577848D01*
X400050D01*
X406398D01*
X408514Y579964D01*
Y582080D01*
X406398Y584196D01*
X400050D01*
X922020Y539746D02*
Y527050D01*
X928368D01*
X930484Y529166D01*
Y531282D01*
X928368Y533398D01*
X922020D01*
X928368D01*
X930484Y535514D01*
Y537630D01*
X928368Y539746D01*
X922020D01*
X745490Y459736D02*
Y447040D01*
X751838D01*
X753954Y449156D01*
Y451272D01*
X751838Y453388D01*
X745490D01*
X751838D01*
X753954Y455504D01*
Y457620D01*
X751838Y459736D01*
X745490D01*
X1182370Y610866D02*
Y598170D01*
X1188718D01*
X1190834Y600286D01*
Y602402D01*
X1188718Y604518D01*
X1182370D01*
X1188718D01*
X1190834Y606634D01*
Y608750D01*
X1188718Y610866D01*
X1182370D01*
X885190Y693416D02*
Y680720D01*
X891538D01*
X893654Y682836D01*
Y684952D01*
X891538Y687068D01*
X885190D01*
X891538D01*
X893654Y689184D01*
Y691300D01*
X891538Y693416D01*
X885190D01*
X894080Y591816D02*
Y579120D01*
X900428D01*
X902544Y581236D01*
Y583352D01*
X900428Y585468D01*
X894080D01*
X900428D01*
X902544Y587584D01*
Y589700D01*
X900428Y591816D01*
X894080D01*
X768350Y457196D02*
Y444500D01*
X774698D01*
X776814Y446616D01*
Y448732D01*
X774698Y450848D01*
X768350D01*
X774698D01*
X776814Y452964D01*
Y455080D01*
X774698Y457196D01*
X768350D01*
X807720Y515616D02*
Y502920D01*
X814068D01*
X816184Y505036D01*
Y507152D01*
X814068Y509268D01*
X807720D01*
X814068D01*
X816184Y511384D01*
Y513500D01*
X814068Y515616D01*
X807720D01*
X878840Y655316D02*
Y642620D01*
X885188D01*
X887304Y644736D01*
Y646852D01*
X885188Y648968D01*
X878840D01*
X885188D01*
X887304Y651084D01*
Y653200D01*
X885188Y655316D01*
X878840D01*
X810260Y582926D02*
Y570230D01*
X816608D01*
X818724Y572346D01*
Y574462D01*
X816608Y576578D01*
X810260D01*
X816608D01*
X818724Y578694D01*
Y580810D01*
X816608Y582926D01*
X810260D01*
X798830Y533396D02*
Y520700D01*
X805178D01*
X807294Y522816D01*
Y524932D01*
X805178Y527048D01*
X798830D01*
X805178D01*
X807294Y529164D01*
Y531280D01*
X805178Y533396D01*
X798830D01*
X662585Y721941D02*
Y709245D01*
X668933D01*
X671049Y711361D01*
Y713477D01*
X668933Y715593D01*
X662585D01*
X668933D01*
X671049Y717709D01*
Y719825D01*
X668933Y721941D01*
X662585D01*
X693420Y712466D02*
Y699770D01*
X699768D01*
X701884Y701886D01*
Y704002D01*
X699768Y706118D01*
X693420D01*
X699768D01*
X701884Y708234D01*
Y710350D01*
X699768Y712466D01*
X693420D01*
X604520Y523236D02*
Y510540D01*
X610868D01*
X612984Y512656D01*
Y514772D01*
X610868Y516888D01*
X604520D01*
X610868D01*
X612984Y519004D01*
Y521120D01*
X610868Y523236D01*
X604520D01*
X590550Y617216D02*
Y604520D01*
X596898D01*
X599014Y606636D01*
Y608752D01*
X596898Y610868D01*
X590550D01*
X596898D01*
X599014Y612984D01*
Y615100D01*
X596898Y617216D01*
X590550D01*
X397510Y678176D02*
Y665480D01*
X403858D01*
X405974Y667596D01*
Y669712D01*
X403858Y671828D01*
X397510D01*
X403858D01*
X405974Y673944D01*
Y676060D01*
X403858Y678176D01*
X397510D01*
X434340Y636266D02*
Y623570D01*
X440688D01*
X442804Y625686D01*
Y627802D01*
X440688Y629918D01*
X434340D01*
X440688D01*
X442804Y632034D01*
Y634150D01*
X440688Y636266D01*
X434340D01*
X257810Y675636D02*
Y662940D01*
X264158D01*
X266274Y665056D01*
Y667172D01*
X264158Y669288D01*
X257810D01*
X264158D01*
X266274Y671404D01*
Y673520D01*
X264158Y675636D01*
X257810D01*
D96*
X76200Y345440D02*
G03*
X76200Y345440I-5080J0D01*
G01*
Y370440D02*
G03*
X76200Y370440I-5080J0D01*
G01*
Y395440D02*
G03*
X76200Y395440I-5080J0D01*
G01*
X641350Y674370D02*
G03*
X641350Y674370I-5080J0D01*
G01*
Y648970D02*
G03*
X641350Y648970I-5080J0D01*
G01*
Y623570D02*
G03*
X641350Y623570I-5080J0D01*
G01*
Y598170D02*
G03*
X641350Y598170I-5080J0D01*
G01*
Y572770D02*
G03*
X641350Y572770I-5080J0D01*
G01*
Y547370D02*
G03*
X641350Y547370I-5080J0D01*
G01*
Y521970D02*
G03*
X641350Y521970I-5080J0D01*
G01*
Y496570D02*
G03*
X641350Y496570I-5080J0D01*
G01*
Y471170D02*
G03*
X641350Y471170I-5080J0D01*
G01*
Y445770D02*
G03*
X641350Y445770I-5080J0D01*
G01*
Y420370D02*
G03*
X641350Y420370I-5080J0D01*
G01*
Y394970D02*
G03*
X641350Y394970I-5080J0D01*
G01*
Y369570D02*
G03*
X641350Y369570I-5080J0D01*
G01*
Y344170D02*
G03*
X641350Y344170I-5080J0D01*
G01*
X717550Y674370D02*
G03*
X717550Y674370I-5080J0D01*
G01*
Y648970D02*
G03*
X717550Y648970I-5080J0D01*
G01*
Y623570D02*
G03*
X717550Y623570I-5080J0D01*
G01*
Y598170D02*
G03*
X717550Y598170I-5080J0D01*
G01*
Y572770D02*
G03*
X717550Y572770I-5080J0D01*
G01*
Y547370D02*
G03*
X717550Y547370I-5080J0D01*
G01*
Y521970D02*
G03*
X717550Y521970I-5080J0D01*
G01*
Y496570D02*
G03*
X717550Y496570I-5080J0D01*
G01*
Y471170D02*
G03*
X717550Y471170I-5080J0D01*
G01*
Y445770D02*
G03*
X717550Y445770I-5080J0D01*
G01*
Y420370D02*
G03*
X717550Y420370I-5080J0D01*
G01*
Y394970D02*
G03*
X717550Y394970I-5080J0D01*
G01*
Y369570D02*
G03*
X717550Y369570I-5080J0D01*
G01*
Y344170D02*
G03*
X717550Y344170I-5080J0D01*
G01*
X214630Y678980D02*
G03*
X214630Y678980I-5080J0D01*
G01*
Y703980D02*
G03*
X214630Y703980I-5080J0D01*
G01*
Y728980D02*
G03*
X214630Y728980I-5080J0D01*
G01*
X1244600Y281940D02*
G03*
X1244600Y281940I-5080J0D01*
G01*
X1259600D02*
G03*
X1259600Y281940I-5080J0D01*
G01*
X896620Y92310D02*
G03*
X896620Y92310I-5080J0D01*
G01*
Y42310D02*
G03*
X896620Y42310I-5080J0D01*
G01*
X775300Y730420D02*
G03*
X775300Y730420I-5080J0D01*
G01*
X800300D02*
G03*
X800300Y730420I-5080J0D01*
G01*
X825300D02*
G03*
X825300Y730420I-5080J0D01*
G01*
X850300D02*
G03*
X850300Y730420I-5080J0D01*
G01*
X964400Y731520D02*
G03*
X964400Y731520I-5080J0D01*
G01*
X939400D02*
G03*
X939400Y731520I-5080J0D01*
G01*
X914400D02*
G03*
X914400Y731520I-5080J0D01*
G01*
D97*
X1242568Y281940D02*
G03*
X1242568Y281940I-3048J0D01*
G01*
X1257568D02*
G03*
X1257568Y281940I-3048J0D01*
G01*
M02*
