G04*
G04 #@! TF.GenerationSoftware,Altium Limited,Altium Designer,24.1.2 (44)*
G04*
G04 Layer_Color=32768*
%FSLAX44Y44*%
%MOMM*%
G71*
G04*
G04 #@! TF.SameCoordinates,48E260C1-2FA9-4A74-8A97-B6B365FA718B*
G04*
G04*
G04 #@! TF.FilePolarity,Positive*
G04*
G01*
G75*
%ADD11C,0.2000*%
D11*
X882650Y251500D02*
G03*
X882650Y164500I0J-43500D01*
G01*
D02*
G03*
X882650Y251500I0J43500D01*
G01*
X1235710Y231460D02*
G03*
X1235710Y144460I0J-43500D01*
G01*
D02*
G03*
X1235710Y231460I0J43500D01*
G01*
X312420Y212880D02*
G03*
X312420Y25880I0J-93500D01*
G01*
D02*
G03*
X312420Y212880I0J93500D01*
G01*
X1122450Y563880D02*
G03*
X998450Y563880I-62000J0D01*
G01*
D02*
G03*
X1122450Y563880I62000J0D01*
G01*
X36120Y420940D02*
X95620D01*
X36120Y319940D02*
Y420940D01*
Y319940D02*
X95620D01*
Y420940D01*
X758199Y378870D02*
Y398370D01*
Y378870D02*
X796281D01*
Y398370D01*
X758199D02*
X796281D01*
X805130Y15350D02*
Y251350D01*
X640130Y15350D02*
X805130D01*
X640130D02*
Y251350D01*
X805130D01*
X473990Y342250D02*
X496290D01*
Y432450D01*
X473990D02*
X496290D01*
X473990Y342250D02*
Y432450D01*
X494180Y510660D02*
Y527660D01*
X466180D02*
X494180D01*
X466180Y510660D02*
Y527660D01*
Y510660D02*
X494180D01*
X431541Y508660D02*
Y527660D01*
X393959D02*
X431541D01*
X393959Y508660D02*
Y527660D01*
Y508660D02*
X431541D01*
X224799Y593009D02*
Y618571D01*
Y593009D02*
X267961D01*
Y618571D01*
X224799D02*
X267961D01*
X803050Y335940D02*
Y354940D01*
X759050D02*
X803050D01*
X759050Y335940D02*
Y354940D01*
Y335940D02*
X803050D01*
X391419Y636930D02*
X429001D01*
X391419D02*
Y655930D01*
X429001D01*
Y636930D02*
Y655930D01*
X450740Y318820D02*
Y483820D01*
X214740D02*
X450740D01*
X214740Y318820D02*
Y483820D01*
Y318820D02*
X450740D01*
X133790Y561310D02*
X188790D01*
X133790Y325150D02*
Y561310D01*
Y325150D02*
X188790D01*
Y561310D01*
X818160Y328280D02*
Y418480D01*
X840460D01*
Y328280D02*
Y418480D01*
X818160Y328280D02*
X840460D01*
X769539Y542467D02*
Y585629D01*
X795101D01*
Y542467D02*
Y585629D01*
X769539Y542467D02*
X795101D01*
X768269Y468639D02*
Y511801D01*
X793831D01*
Y468639D02*
Y511801D01*
X768269Y468639D02*
X793831D01*
X342280Y696260D02*
X443380D01*
X342280D02*
Y747760D01*
X443380D01*
Y696260D02*
Y747760D01*
X185050Y653480D02*
Y754480D01*
X244550D01*
Y653480D02*
Y754480D01*
X185050Y653480D02*
X244550D01*
X275038Y672690D02*
X313120D01*
Y653190D02*
Y672690D01*
X275038Y653190D02*
X313120D01*
X275038D02*
Y672690D01*
X280511Y618571D02*
X323673D01*
Y593009D02*
Y618571D01*
X280511Y593009D02*
X323673D01*
X280511D02*
Y618571D01*
X833129Y600300D02*
X871211D01*
Y580800D02*
Y600300D01*
X833129Y580800D02*
X871211D01*
X833129D02*
Y600300D01*
X631199Y745080D02*
X669281D01*
Y725580D02*
Y745080D01*
X631199Y725580D02*
X669281D01*
X631199D02*
Y745080D01*
X943720Y311100D02*
X1179720D01*
Y146100D02*
Y311100D01*
X943720Y146100D02*
X1179720D01*
X943720D02*
Y311100D01*
X873490Y480330D02*
Y558530D01*
X820690D02*
X873490D01*
X820690Y480330D02*
Y558530D01*
Y480330D02*
X873490D01*
X901810Y327710D02*
Y492710D01*
Y327710D02*
X1137810D01*
Y492710D01*
X901810D02*
X1137810D01*
X448360Y251350D02*
X613360D01*
X448360Y15350D02*
Y251350D01*
Y15350D02*
X613360D01*
Y251350D01*
X853720Y328280D02*
X876020D01*
Y418480D01*
X853720D02*
X876020D01*
X853720Y328280D02*
Y418480D01*
X870720Y695420D02*
Y754920D01*
X744720D02*
X870720D01*
X744720Y695420D02*
Y754920D01*
Y695420D02*
X870720D01*
X554831Y720009D02*
Y745571D01*
Y720009D02*
X597993D01*
Y745571D01*
X554831D02*
X597993D01*
X496720Y557920D02*
Y574920D01*
X468720D02*
X496720D01*
X468720Y557920D02*
Y574920D01*
Y557920D02*
X496720D01*
X883820Y696520D02*
Y756020D01*
Y696520D02*
X984820D01*
Y756020D01*
X883820D02*
X984820D01*
X558809Y659540D02*
Y679040D01*
Y659540D02*
X596891D01*
Y679040D01*
X558809D02*
X596891D01*
X832109Y633120D02*
Y652120D01*
Y633120D02*
X869691D01*
Y652120D01*
X832109D02*
X869691D01*
X258000Y236460D02*
Y266460D01*
Y236460D02*
X364300D01*
Y266460D01*
X258000D02*
X364300D01*
M02*
